<?xml version="1.0" standalone="no"?>
<!DOCTYPE svg PUBLIC "-//W3C//DTD SVG 20010904//EN"
 "http://www.w3.org/TR/2001/REC-SVG-20010904/DTD/svg10.dtd">
<svg version="1.0" xmlns="http://www.w3.org/2000/svg"
 width="350.000000pt" height="350.000000pt" viewBox="0 0 350.000000 350.000000"
 preserveAspectRatio="xMidYMid meet">
<metadata>
Created by potrace 1.15, written by Peter Selinger 2001-2017
</metadata>
<g transform="translate(0.000000,350.000000) scale(0.100000,-0.100000)"
fill="#000000" stroke="none">
<path d="M2190 2704 c-36 -13 -50 -21 -32 -18 50 9 38 -10 -25 -39 -67 -30
-82 -35 -142 -42 -95 -12 -220 -51 -241 -76 -3 -3 -19 -14 -36 -23 -17 -10
-36 -27 -43 -38 -9 -14 -1 -11 26 10 31 25 121 73 143 77 3 0 19 4 35 9 64 17
202 31 245 25 25 -4 98 -15 162 -24 68 -10 143 -16 177 -12 82 7 72 -13 -25
-48 -59 -22 -84 -26 -117 -21 -113 19 -204 18 -288 -3 -46 -12 -88 -26 -93
-31 -6 -6 9 -3 34 6 61 22 252 30 344 14 39 -7 127 -30 195 -51 68 -22 147
-42 175 -45 28 -3 52 -10 54 -14 4 -10 65 24 84 47 11 15 11 16 -7 9 -11 -5
-56 -11 -100 -15 -76 -6 -134 3 -200 30 -11 4 -40 14 -65 20 -61 17 -68 26
-28 34 41 9 111 48 149 85 29 27 41 53 15 31 -7 -6 -35 -14 -62 -17 -27 -4
-56 -10 -65 -15 -9 -4 -20 -4 -25 0 -10 9 -239 35 -291 32 -52 -2 -48 17 10
44 51 24 133 85 112 83 -5 0 -39 -11 -75 -24z"/>
<path d="M2696 2330 c-42 -27 -158 -53 -208 -47 -24 3 -69 14 -101 25 -32 12
-75 24 -95 26 l-37 6 35 -11 c41 -13 50 -17 150 -62 78 -35 184 -102 235 -149
76 -69 100 -88 131 -103 58 -28 52 -37 -22 -34 -38 2 -75 7 -82 12 -7 6 -14 8
-16 6 -3 -2 14 -17 37 -34 24 -16 36 -21 27 -11 -14 18 -12 19 60 13 64 -5 82
-2 124 17 49 22 49 23 17 24 -73 2 -147 39 -291 147 -52 39 -110 77 -127 84
-18 7 -33 16 -33 20 0 4 31 12 69 19 69 12 161 48 161 64 0 10 1 10 -34 -12z"/>
<path d="M1986 2212 c-17 -32 -53 -49 -81 -38 -9 3 -15 0 -15 -8 0 -21 -34
-46 -63 -46 l-26 0 20 -35 c12 -19 23 -35 26 -35 2 0 19 11 36 24 74 56 177
51 249 -12 16 -13 19 -12 37 9 19 24 19 24 -2 27 -29 5 -57 31 -57 53 0 11 -5
16 -13 13 -25 -9 -68 15 -81 48 l-14 32 -16 -32z"/>
<path d="M2245 2011 c-17 -7 -19 -18 -20 -84 -1 -73 0 -77 21 -77 19 0 21 5
20 43 -1 31 3 42 14 42 11 0 15 -11 15 -41 0 -36 3 -42 23 -42 21 0 22 4 22
74 0 62 -3 75 -19 84 -23 12 -47 12 -76 1z"/>
<path d="M2676 1920 c21 -21 31 -26 37 -17 6 8 7 6 3 -6 -4 -12 9 -40 34 -78
22 -33 40 -65 40 -70 0 -5 28 -64 62 -131 34 -68 61 -128 60 -134 -1 -6 18
-17 42 -23 58 -14 60 -14 42 5 -9 8 -21 12 -27 9 -6 -4 -9 -1 -7 6 1 8 -16 41
-38 74 -22 33 -60 96 -84 140 -24 44 -59 104 -77 134 -24 37 -31 57 -24 64 7
7 15 6 26 -3 8 -7 15 -8 15 -2 0 9 -49 34 -67 34 -4 0 -17 7 -28 14 -33 24
-38 15 -9 -16z"/>
<path d="M1487 1813 c-14 -14 -6 -55 38 -182 25 -72 45 -134 45 -137 0 -3 -20
-4 -45 -2 -43 3 -45 2 -45 -24 l0 -28 79 0 c72 0 79 2 84 21 3 12 -15 81 -44
163 -27 77 -49 143 -49 145 0 2 23 1 50 -1 49 -5 50 -5 50 23 l0 29 -78 0
c-43 0 -82 -3 -85 -7z"/>
<path d="M1669 1802 c6 -11 9 -86 7 -178 -2 -87 -1 -165 1 -171 4 -9 35 -13
111 -13 82 0 103 3 94 12 -17 17 -17 354 1 361 6 3 -15 5 -48 5 -33 0 -54 -2
-47 -5 9 -3 12 -46 12 -164 l0 -159 -25 0 -26 0 3 165 3 165 -48 0 c-43 0 -47
-2 -38 -18z"/>
<path d="M1986 1811 c76 -6 114 -20 114 -43 0 -6 -7 -5 -15 2 -13 11 -14 10
-9 -5 7 -17 6 -17 -19 0 -21 13 -38 15 -76 10 -43 -6 -50 -4 -54 12 -3 10 -5
-57 -6 -149 0 -91 -4 -173 -7 -181 -4 -12 6 -16 45 -18 48 -4 63 2 41 16 -5 3
-10 44 -10 91 l0 84 25 -6 c48 -12 115 50 115 107 0 61 -51 90 -152 87 l-73
-1 81 -6z"/>
<path d="M2148 1808 c15 -15 16 -107 2 -144 -8 -20 -8 -29 1 -34 7 -5 10 -38
8 -99 l-4 -91 78 0 77 0 0 29 c0 28 -1 29 -40 24 l-40 -6 0 72 0 71 29 0 c19
0 32 6 35 18 10 31 6 36 -27 36 -31 1 -32 2 -38 56 -3 30 -6 49 -7 41 -2 -11
-5 -11 -17 -1 -10 9 -15 9 -15 1 0 -6 -5 -11 -12 -11 -6 0 -8 3 -5 7 4 3 2 12
-5 20 -9 12 0 14 58 11 41 -2 67 -7 64 -13 -3 -5 -14 -11 -24 -12 -28 -5 -33
-13 -8 -13 11 0 27 -3 36 -6 13 -5 16 1 16 25 l0 31 -87 0 c-68 0 -84 -3 -75
-12z"/>
<path d="M2338 1638 c2 -140 0 -183 -10 -189 -8 -5 11 -9 45 -9 41 0 56 3 51
11 -9 15 -12 159 -4 159 4 0 24 -38 46 -84 l39 -84 43 -3 c45 -4 51 1 27 21
-8 7 -15 16 -15 21 0 5 -13 38 -30 74 -31 68 -37 95 -20 95 13 0 40 54 40 82
0 27 -26 61 -57 77 -12 6 -52 11 -90 11 l-68 0 3 -182z"/>
<path d="M1299 1383 l24 -16 -7 -261 c-5 -204 -10 -266 -22 -283 -8 -13 -12
-23 -9 -23 7 0 188 91 195 98 3 2 -1 7 -7 9 -9 3 -13 33 -13 101 0 55 4 92 9
87 4 -6 26 -44 47 -85 21 -41 39 -77 40 -79 2 -2 37 9 79 24 55 20 72 31 62
37 -17 9 -64 90 -96 164 l-23 52 37 55 c36 54 36 56 20 81 -20 30 -51 34 -58
9 -3 -10 -5 -2 -6 17 -2 32 -3 33 -12 12 -5 -13 -6 -29 -2 -34 3 -7 1 -8 -5
-4 -7 4 -25 -13 -44 -43 -18 -28 -36 -51 -40 -51 -9 0 3 123 15 138 6 8 6 12
-1 12 -13 0 -34 -34 -27 -44 3 -3 -1 -2 -7 4 -16 13 -71 13 -63 0 12 -20 -23
-9 -49 15 -15 14 -35 25 -44 25 -13 0 -11 -4 7 -17z"/>
<path d="M1768 1388 c19 -19 4 -357 -17 -382 -15 -18 -15 -19 4 -11 11 4 51
15 89 25 41 10 65 20 57 24 -9 6 -11 49 -10 158 1 167 1 168 -63 164 -31 -3
-38 0 -38 15 0 11 -7 19 -17 19 -13 0 -14 -3 -5 -12z"/>
<path d="M1959 1391 c12 -8 13 -37 8 -166 -5 -103 -11 -163 -19 -173 -11 -13
-10 -15 5 -9 9 3 47 12 83 18 37 6 61 15 55 19 -8 4 -11 33 -9 84 l3 78 82
-96 c45 -54 85 -92 88 -86 4 6 3 81 -1 166 -5 128 -4 158 7 165 9 5 -13 9 -60
9 -59 0 -71 -3 -63 -13 13 -16 10 -94 -3 -87 -6 2 -21 18 -35 35 -14 16 -32
38 -40 47 -8 10 -28 18 -45 18 -21 0 -26 -3 -16 -9 8 -5 20 -7 26 -5 7 3 20
-8 30 -23 l18 -28 -22 20 c-18 15 -24 17 -30 6 -5 -8 -13 -11 -19 -7 -6 3 -13
0 -16 -6 -3 -7 -5 -4 -5 7 2 38 -1 45 -18 45 -15 0 -15 -2 -4 -9z"/>
<path d="M2364 1379 c-49 -26 -84 -81 -84 -133 0 -85 70 -151 186 -176 27 -5
59 -13 72 -15 22 -5 23 -4 21 52 -2 32 1 66 5 76 7 14 2 17 -33 19 -23 0 -47
1 -53 2 -9 1 -12 -11 -10 -36 4 -44 -11 -49 -51 -17 -35 27 -52 89 -37 135 17
51 48 67 118 62 57 -4 57 -4 57 24 l0 28 -75 0 c-57 0 -85 -5 -116 -21z"/>
<path d="M2593 1383 c-7 -19 1 -50 56 -198 22 -60 41 -111 41 -113 0 -7 -65
10 -74 19 -18 16 -27 9 -24 -18 3 -24 11 -29 78 -50 41 -12 81 -23 89 -23 22
0 7 83 -39 221 -22 67 -40 123 -40 126 0 3 18 3 40 0 39 -5 40 -4 40 24 l0 29
-80 0 c-66 0 -82 -3 -87 -17z"/>
</g>
</svg>
