<?xml version="1.0" standalone="no"?>
<!DOCTYPE svg PUBLIC "-//W3C//DTD SVG 20010904//EN"
 "http://www.w3.org/TR/2001/REC-SVG-20010904/DTD/svg10.dtd">
<svg version="1.0" xmlns="http://www.w3.org/2000/svg"
 width="640.000000pt" height="640.000000pt" viewBox="0 0 640.000000 640.000000"
 preserveAspectRatio="xMidYMid meet">
<metadata>
Created by potrace 1.15, written by Peter Selinger 2001-2017
</metadata>
<g transform="translate(0.000000,640.000000) scale(0.100000,-0.100000)"
fill="#000000" stroke="none">
<path d="M3094 6291 c-13 -52 -24 -76 -36 -79 -24 -6 -23 -33 2 -39 11 -3 20
-11 20 -18 0 -15 -42 -51 -71 -60 -13 -5 -19 -16 -19 -38 0 -29 -4 -34 -42
-47 -54 -20 -68 -42 -44 -69 11 -12 34 -26 52 -33 27 -10 34 -17 34 -39 0 -15
-7 -35 -16 -43 -9 -9 -19 -28 -23 -43 -6 -22 -19 -30 -72 -48 -133 -45 -232
-108 -325 -208 -81 -87 -134 -184 -166 -307 -26 -101 -62 -151 -147 -205 l-58
-37 -17 -100 c-10 -62 -24 -111 -38 -132 -20 -31 -31 -35 -152 -66 -373 -93
-714 -246 -933 -417 -96 -74 -113 -73 -22 2 34 28 67 55 73 60 6 6 52 40 101
77 134 99 272 183 403 245 115 55 363 143 402 143 39 0 56 32 70 131 7 51 15
100 17 107 3 7 38 35 77 61 71 48 113 87 105 96 -8 7 -252 -57 -439 -117 -256
-81 -607 -229 -902 -381 l-178 -91 0 -328 0 -328 -253 -2 -253 -3 168 -154
168 -155 0 -453 0 -454 144 -69 144 -68 17 -54 c136 -424 300 -742 564 -1093
374 -499 912 -937 1549 -1260 l132 -67 142 72 c739 375 1339 905 1733 1535
138 220 271 507 353 762 l36 111 100 43 c56 23 122 53 149 66 l47 23 0 244 0
244 -55 70 c-30 39 -55 73 -55 77 0 3 23 3 50 -1 l50 -7 0 139 0 139 157 157
158 158 -243 0 -242 0 0 319 0 319 -23 15 c-103 68 -571 288 -792 374 -254 98
-705 235 -705 214 0 -12 51 -56 117 -100 37 -25 65 -51 68 -64 2 -12 11 -62
20 -111 8 -49 16 -91 19 -93 2 -2 55 -17 117 -33 298 -76 572 -216 799 -406
91 -77 190 -174 176 -174 -4 0 -33 23 -64 51 -216 197 -600 363 -1077 464 -30
6 -52 59 -70 160 -8 50 -15 93 -15 97 0 3 -28 24 -62 46 -83 52 -120 101 -140
182 -32 131 -73 214 -156 316 -73 91 -267 208 -388 235 -45 10 -54 16 -54 34
0 12 -9 30 -20 40 -11 10 -20 30 -20 44 0 21 8 29 45 44 43 18 63 46 49 68 -3
6 -26 20 -50 31 -36 15 -44 24 -44 46 -1 21 -10 33 -45 54 -47 28 -60 58 -25
58 13 0 20 7 20 19 0 10 -9 21 -20 24 -11 3 -20 13 -21 24 0 10 -8 43 -18 73
l-17 55 -20 -74z m401 -665 c39 -19 91 -54 116 -78 48 -44 115 -135 106 -144
-2 -3 -27 17 -55 44 -89 87 -301 222 -348 222 -7 0 -14 4 -14 9 0 16 122 -18
195 -53z m-615 9 c-122 -71 -193 -147 -253 -270 -51 -105 -61 -152 -52 -243
11 -99 7 -314 -5 -322 -5 -3 -52 -11 -103 -18 -52 -7 -134 -23 -181 -36 -47
-13 -86 -21 -86 -19 0 2 9 22 20 45 11 23 23 70 26 104 l7 63 52 27 c29 14 71
45 93 68 34 35 42 53 57 119 9 43 36 117 60 165 74 147 166 238 320 317 114
58 143 58 45 0z m128 -12 c-56 -115 -84 -341 -73 -598 3 -88 7 -169 8 -180 2
-17 -5 -21 -39 -23 l-41 -3 -7 49 c-10 74 12 372 35 486 23 112 57 206 102
279 40 65 50 59 15 -10z m-38 -1108 l0 -65 -80 0 -80 0 0 -54 0 -54 65 6 65 5
0 -57 0 -56 -65 0 -65 0 0 -65 0 -64 83 -3 82 -3 0 -60 0 -60 -182 -3 -183 -2
0 289 0 289 88 7 c48 3 96 7 107 9 11 2 53 4 93 5 l72 1 0 -65z m259 -167 l-2
-233 87 -3 87 -3 -3 -62 -3 -62 -182 -3 -183 -2 0 300 0 300 101 0 100 0 -2
-232z m401 207 c5 -3 7 -50 3 -119 l-6 -113 37 -5 c20 -2 39 -2 41 1 3 2 5 55
5 118 0 79 3 113 12 113 12 0 128 -18 165 -25 14 -3 20 -11 18 -22 -2 -10 -4
-132 -4 -270 l-1 -253 -95 0 -94 0 -3 118 -3 117 -37 3 -38 3 0 -120 0 -121
-95 0 -95 0 0 296 0 297 90 -6 c49 -3 94 -8 100 -12z m-1167 -62 l66 -38 1
-192 0 -191 -62 -46 -62 -46 -168 0 -168 0 0 189 0 189 -49 21 c-28 11 -62 26
-78 32 -37 14 -24 21 97 49 89 21 322 67 346 69 6 1 41 -16 77 -36z m1668 -13
c135 -28 209 -47 216 -54 3 -3 -7 -10 -23 -16 -16 -6 -53 -21 -81 -33 l-53
-22 0 -187 0 -188 -94 0 c-57 0 -97 4 -101 11 -4 6 -4 123 0 260 7 228 9 249
25 249 10 0 60 -9 111 -20z m-2909 -703 l83 -63 -2 -118 c-1 -65 -3 -119 -5
-121 -3 -3 -223 -35 -240 -35 -4 0 -7 48 -5 108 l2 107 -49 -3 c-27 -1 -50 -3
-51 -5 -1 -1 -5 -166 -9 -366 l-7 -364 28 6 c15 3 40 10 56 16 l27 11 0 135 0
135 28 6 c15 3 63 15 107 25 44 11 88 21 98 23 16 4 17 -8 17 -137 l0 -142
-86 -96 -85 -97 -130 -50 -131 -51 -51 19 c-29 11 -67 29 -84 40 l-33 20 0
454 0 454 -82 67 c-46 37 -84 71 -86 76 -2 5 128 9 301 9 l305 0 84 -63z m672
-24 c10 -49 44 -218 77 -377 33 -158 59 -289 57 -290 -7 -4 -234 -56 -244 -56
-7 0 -15 28 -19 66 -5 51 -10 64 -21 60 -8 -3 -40 -13 -72 -22 -31 -9 -58 -17
-59 -18 -2 -1 -8 -36 -14 -77 l-11 -74 -122 -43 c-126 -44 -140 -47 -132 -34
2 4 27 147 55 317 28 171 65 383 83 473 l31 162 187 0 187 0 17 -87z m715 34
c46 -29 83 -56 82 -60 0 -4 -1 -63 -1 -131 l0 -123 -86 -52 c-84 -50 -87 -51
-165 -51 l-79 0 -1 -97 c-1 -54 -2 -109 -3 -123 -1 -24 -5 -25 -71 -31 -38 -3
-96 -9 -127 -14 l-58 -7 0 371 0 371 213 -1 212 -1 84 -51z m421 -297 l0 -351
-127 3 -128 3 -3 335 c-1 184 0 341 3 347 3 10 38 13 130 13 l125 0 0 -350z
m620 279 l0 -71 -70 4 -70 3 0 -282 0 -283 -107 0 c-60 0 -118 3 -130 6 l-23
6 0 280 0 280 -70 -4 -70 -3 0 68 0 67 270 0 270 0 0 -71z m542 -9 c10 -41 45
-205 79 -364 33 -159 63 -296 67 -304 6 -16 -2 -16 -190 4 l-56 6 -11 61 c-6
33 -12 61 -13 62 -2 1 -33 5 -71 9 -75 7 -72 10 -82 -68 l-7 -48 -121 7 c-67
4 -123 8 -124 9 -2 2 10 63 26 137 16 74 48 224 71 334 22 110 43 208 46 218
5 16 21 17 187 15 l182 -3 17 -75z m487 -276 l-4 -356 105 -32 105 -32 3 -77
c2 -54 -1 -77 -9 -77 -6 0 -80 22 -163 49 -83 28 -184 60 -224 71 l-72 22 1
357 c1 196 3 373 6 394 l5 37 125 0 126 0 -4 -356z m1071 348 c0 -4 -10 -13
-22 -21 -13 -8 -53 -38 -90 -68 l-68 -54 0 -104 0 -105 -37 1 c-21 0 -78 6
-128 12 l-90 12 0 75 0 75 -53 3 -53 3 3 -113 3 -112 89 -21 90 -20 88 -109
88 -108 0 -189 c0 -104 1 -192 2 -196 3 -12 -70 -51 -129 -70 l-52 -16 -138
53 c-76 30 -144 59 -152 64 -8 6 -47 49 -88 95 l-73 83 0 84 c0 46 3 84 8 84
4 1 62 -14 129 -32 l123 -33 0 -71 c0 -78 2 -81 83 -100 l28 -6 -3 118 -3 119
-91 30 -92 30 -86 97 -86 97 0 139 c0 95 4 143 13 155 6 9 46 41 87 71 l75 55
313 1 c171 0 312 -3 312 -8z m-3090 -1251 c-38 -54 -69 -135 -76 -196 -8 -80
-28 -141 -68 -208 l-34 -55 18 -39 c9 -21 45 -73 78 -115 34 -43 62 -80 62
-83 0 -2 -7 -2 -15 1 -34 13 -10 -18 66 -89 44 -42 104 -88 133 -103 49 -25
53 -30 54 -66 1 -21 6 -57 12 -80 5 -24 10 -53 10 -66 0 -20 -5 -18 -39 22
-22 25 -44 61 -51 81 -9 27 -16 34 -29 30 -13 -4 -25 6 -45 35 -37 56 -151
176 -193 201 -32 20 -35 20 -52 5 -18 -16 -19 -15 -36 26 -10 24 -20 78 -23
121 -2 42 -6 77 -8 77 -1 0 -15 -5 -30 -10 l-27 -11 5 64 c3 34 13 77 22 95
11 21 13 32 5 32 -6 0 5 18 24 39 41 46 58 75 82 149 21 66 63 115 124 147 25
13 47 24 49 25 2 0 -6 -13 -18 -29z m1026 -57 c13 -17 33 -56 43 -86 25 -73
43 -106 82 -148 17 -19 27 -36 22 -37 -6 -2 -2 -20 8 -41 20 -41 30 -148 14
-145 -5 1 -18 5 -27 8 -15 6 -18 1 -18 -28 0 -48 -16 -129 -35 -174 -15 -35
-17 -37 -30 -20 -9 12 -20 17 -33 13 -25 -8 -152 -133 -203 -201 -28 -37 -45
-52 -58 -48 -13 3 -20 -5 -29 -34 -6 -21 -30 -58 -52 -83 l-41 -45 7 40 c3 22
12 70 18 107 l11 68 60 35 c33 20 90 66 128 103 66 66 81 87 52 76 -25 -10
-17 10 16 42 38 36 118 155 121 180 2 11 -16 57 -39 104 -32 63 -45 105 -53
164 -10 78 -50 185 -76 207 -8 6 -14 16 -14 21 0 17 102 -46 126 -78z m-2556
-154 c115 -301 322 -654 556 -950 131 -165 415 -450 584 -585 249 -201 508
-368 778 -504 l82 -41 102 51 c516 258 1007 659 1365 1114 208 265 418 625
529 909 21 54 40 94 42 88 4 -13 -57 -177 -115 -307 -191 -432 -449 -803 -797
-1149 -293 -290 -660 -552 -1044 -745 l-83 -42 -134 70 c-409 215 -710 435
-1016 740 -314 315 -539 628 -719 1004 -83 173 -195 466 -166 436 2 -2 19 -42
36 -89z m945 0 c-3 -5 -10 -10 -16 -10 -26 0 -144 -67 -188 -106 -39 -35 -51
-42 -51 -28 0 13 -15 3 -55 -36 -30 -30 -55 -57 -55 -60 0 -3 16 -4 35 -2 19
2 52 1 73 -3 36 -7 36 -8 12 -17 -22 -8 -77 -5 -122 8 -10 3 -18 13 -18 23 0
25 51 102 89 134 34 28 58 36 45 15 -4 -7 6 -3 22 9 75 52 251 109 229 73z
m2235 -31 c36 -17 73 -38 84 -47 18 -16 19 -16 13 1 -5 14 -3 16 11 8 55 -29
143 -154 128 -180 -8 -13 -120 -23 -147 -12 l-24 9 27 7 c15 4 50 5 78 3 27
-1 50 -2 50 0 0 6 -108 112 -114 112 -3 0 -6 -6 -6 -13 0 -8 -19 4 -42 25 -41
37 -167 108 -194 108 -7 0 -16 5 -19 11 -13 19 87 -1 155 -32z m-1357 -183 c9
-7 17 -25 17 -38 0 -40 46 -130 85 -168 32 -31 34 -35 19 -51 -26 -28 -80 -42
-137 -35 -57 8 -82 22 -108 63 -28 41 -24 44 27 22 52 -23 72 -19 26 5 -38 20
-70 64 -78 108 l-6 33 41 -46 c35 -40 115 -88 127 -76 2 2 -19 19 -47 37 -37
24 -57 45 -71 77 -11 25 -18 47 -15 49 2 2 22 -9 45 -26 56 -40 64 -38 22 5
-29 30 -32 37 -20 45 21 14 52 12 73 -4z m425 8 c23 -7 23 -7 -14 -45 -46 -47
-38 -50 23 -8 l46 32 -7 -28 c-11 -44 -43 -82 -92 -111 -25 -15 -43 -28 -41
-31 12 -12 92 35 127 75 22 24 40 38 40 30 0 -39 -26 -82 -69 -114 -42 -33
-44 -35 -16 -28 17 4 40 14 53 22 12 8 22 11 22 8 0 -18 -32 -65 -53 -79 -57
-37 -184 -28 -211 15 -9 14 -4 25 26 55 41 42 78 120 78 162 0 39 38 58 88 45z
m-1149 -129 c18 -61 60 -105 100 -105 25 0 34 -6 50 -37 24 -48 61 -83 130
-123 84 -49 140 -99 172 -154 39 -69 36 -78 -8 -30 -49 52 -93 85 -168 124
-33 17 -79 46 -103 65 -49 40 -79 47 -62 16 15 -29 12 -41 -9 -41 -30 0 -79
-48 -91 -88 -5 -20 -10 -65 -10 -98 0 -40 -4 -64 -12 -67 -7 -3 -43 -28 -80
-55 l-67 -51 -25 20 c-14 11 -31 17 -37 13 -6 -3 -15 0 -20 7 -17 27 -8 54 24
74 17 11 37 30 43 43 18 37 27 39 19 5 -8 -39 3 -42 33 -10 31 33 44 83 36
139 -4 36 -2 51 10 64 9 8 16 22 16 30 0 19 -24 72 -47 103 -17 23 -17 24 7
16 21 -6 73 -28 103 -43 5 -2 1 11 -8 29 -19 36 -34 199 -19 199 5 0 16 -20
23 -45z m1803 -34 c-1 -38 -8 -85 -16 -106 -9 -21 -16 -39 -16 -41 0 -1 25 9
56 23 30 14 58 23 61 20 2 -3 -7 -23 -21 -44 -28 -40 -34 -91 -14 -111 8 -8
12 -36 10 -80 -3 -57 0 -72 20 -101 32 -48 48 -51 48 -9 l1 33 20 -37 c11 -21
24 -38 29 -38 6 0 18 -8 29 -19 24 -24 18 -74 -9 -66 -9 3 -29 -4 -44 -16
l-27 -21 -27 24 c-15 14 -49 41 -75 60 l-48 34 -4 71 c-2 39 -10 84 -19 101
-19 37 -62 72 -87 72 -22 0 -23 4 -8 32 6 11 8 22 5 25 -7 7 -93 -43 -103 -60
-4 -7 -39 -28 -78 -46 -41 -21 -93 -57 -127 -91 -62 -60 -69 -60 -39 -2 25 49
104 122 173 161 67 38 120 88 138 130 10 26 18 31 45 31 40 0 74 36 100 105
10 25 20 43 23 41 2 -3 4 -36 4 -75z m-2329 43 c3 -3 -9 -19 -26 -36 -18 -16
-25 -28 -17 -25 65 19 66 19 20 -22 l-44 -40 52 13 52 14 -20 -28 c-23 -32
-85 -60 -134 -60 -42 0 -92 36 -76 55 6 7 14 32 18 56 7 40 10 43 57 60 50 18
107 24 118 13z m2937 -11 c47 -14 60 -22 60 -38 1 -11 7 -38 15 -60 16 -45 14
-48 -35 -69 -32 -13 -40 -13 -90 5 -48 17 -89 49 -90 71 0 4 21 1 48 -7 l47
-14 -45 40 c-25 23 -37 38 -27 35 11 -3 31 -9 45 -13 27 -6 27 -6 -5 21 -18
15 -33 32 -33 37 0 14 45 11 110 -8z m-1638 -699 c22 -11 58 -17 113 -18 96 0
130 14 176 79 18 25 33 44 34 42 1 -1 5 -18 9 -38 5 -31 3 -37 -18 -47 -17 -8
-31 -29 -47 -72 -27 -74 -55 -92 -144 -93 -87 -1 -119 15 -140 69 -9 24 -33
58 -55 77 -37 31 -38 34 -27 69 l11 35 27 -43 c16 -23 43 -51 61 -60z"/>
<path d="M2283 4393 c-23 -4 -23 -7 -23 -149 l0 -144 40 0 40 0 0 150 c0 164
4 155 -57 143z"/>
<path d="M1679 3668 c-4 -9 -45 -364 -43 -369 2 -3 26 -1 55 5 l51 10 -5 36
c-3 19 -14 99 -23 178 -10 78 -21 142 -26 142 -4 0 -9 -1 -9 -2z"/>
<path d="M2360 3599 l0 -100 43 3 42 4 3 97 3 97 -46 0 -45 0 0 -101z"/>
<path d="M3980 3683 c0 -5 -7 -62 -15 -128 -22 -179 -24 -172 31 -177 25 -2
47 -1 49 3 4 5 -29 232 -41 287 -4 20 -24 32 -24 15z"/>
</g>
</svg>
