<?xml version="1.0" standalone="no"?>
<!DOCTYPE svg PUBLIC "-//W3C//DTD SVG 20010904//EN"
 "http://www.w3.org/TR/2001/REC-SVG-20010904/DTD/svg10.dtd">
<svg version="1.0" xmlns="http://www.w3.org/2000/svg"
 width="640.000000pt" height="640.000000pt" viewBox="0 0 640.000000 640.000000"
 preserveAspectRatio="xMidYMid meet">
<metadata>
Created by potrace 1.15, written by Peter Selinger 2001-2017
</metadata>
<g transform="translate(0.000000,640.000000) scale(0.100000,-0.100000)"
fill="#000000" stroke="none">
<path d="M2247 6194 c-6 -6 15 -87 36 -136 30 -71 107 -179 186 -261 l79 -81
50 27 c32 17 80 32 130 39 73 11 88 10 168 -11 147 -38 133 -38 125 0 -12 51
-39 109 -67 146 -29 38 -26 40 24 14 75 -39 136 -124 161 -223 6 -28 31 -73
59 -110 26 -35 54 -78 61 -96 21 -51 31 -38 31 46 0 184 -53 324 -159 425 -66
63 -196 132 -306 162 -75 20 -321 33 -311 16 4 -6 15 -11 24 -11 23 0 117 -45
150 -71 38 -30 62 -70 62 -104 0 -36 -8 -48 -37 -64 -88 -46 -257 52 -414 241
-26 31 -49 54 -52 52z m584 -95 c220 -61 368 -206 415 -405 23 -101 12 -121
-14 -24 -29 107 -67 175 -141 248 -84 83 -203 145 -346 178 -38 10 -77 21 -85
26 -24 14 93 -1 171 -23z"/>
<path d="M1657 6073 c-54 -18 -52 -24 13 -42 64 -19 105 -41 214 -118 215
-153 244 -164 431 -169 l130 -4 -50 19 c-92 34 -172 79 -276 158 -57 43 -127
93 -156 110 -100 61 -210 78 -306 46z"/>
<path d="M1740 5875 c0 -2 25 -29 55 -58 43 -42 55 -60 55 -84 0 -66 -63 -104
-136 -84 -21 6 -39 9 -41 7 -10 -10 14 -39 55 -66 37 -24 56 -30 102 -30 49 0
74 8 187 64 72 35 142 66 155 70 19 6 12 11 -47 30 -83 27 -141 56 -183 91
-44 37 -111 65 -159 65 -24 0 -43 -2 -43 -5z"/>
<path d="M2724 5752 c4 -7 13 -12 20 -12 29 0 126 -103 126 -134 0 -3 -24 6
-53 19 -163 75 -465 83 -672 18 -91 -29 -196 -80 -246 -122 l-34 -28 35 -8
c237 -48 425 -132 593 -263 l58 -45 16 24 c9 13 40 48 69 77 l52 53 -55 36
c-48 31 -98 56 -178 89 -16 7 -12 9 20 12 45 4 157 -11 254 -35 53 -14 69 -14
99 -3 106 38 282 52 377 30 22 -5 41 -7 43 -5 10 9 -51 95 -103 147 -94 94
-202 140 -354 154 -55 5 -72 4 -67 -4z m-136 -102 c72 -12 226 -59 219 -67 -3
-3 -27 2 -54 11 -188 60 -425 59 -606 -3 -138 -48 -208 -91 -148 -91 42 0 232
-62 309 -101 45 -23 81 -43 79 -45 -2 -3 -34 10 -71 26 -108 49 -167 69 -281
95 -59 13 -109 26 -111 28 -7 6 108 65 180 92 58 22 154 47 226 58 51 9 197 7
258 -3z"/>
<path d="M2957 5425 c-207 -39 -362 -181 -423 -390 -26 -90 -25 -246 3 -307
12 -27 23 -48 25 -48 2 0 2 51 0 113 -4 131 13 227 55 313 58 120 178 215 322
257 91 26 250 25 351 -1 41 -11 77 -18 79 -16 3 2 -6 15 -19 29 -45 48 -257
75 -393 50z"/>
<path d="M2245 5291 c62 -78 72 -136 30 -169 -15 -12 -41 -22 -57 -22 -40 0
-126 48 -143 79 l-14 26 0 -25 c0 -39 31 -106 72 -155 29 -34 66 -59 157 -105
66 -34 128 -72 139 -86 10 -13 21 -24 24 -24 2 0 7 46 9 103 4 65 13 125 27
164 12 34 21 67 21 72 0 18 -130 118 -199 154 -113 59 -119 58 -66 -12z"/>
<path d="M2960 5324 c-174 -46 -299 -152 -351 -300 -43 -123 -42 -369 2 -455
22 -44 25 -45 59 -23 78 52 149 138 215 259 125 231 245 326 460 361 55 9 102
18 104 20 2 2 -11 26 -29 54 -28 43 -39 52 -84 65 -132 38 -276 45 -376 19z"/>
<path d="M3341 5139 c-113 -22 -213 -79 -292 -168 -47 -52 -83 -107 -169 -253
-40 -68 -122 -153 -200 -206 -54 -38 -55 -39 -102 -167 -26 -70 -46 -131 -43
-134 10 -9 137 29 199 61 86 43 154 96 222 173 l60 67 65 -45 c189 -132 477
-227 691 -227 l67 0 -30 68 c-17 37 -78 173 -136 302 -58 129 -107 237 -109
239 -2 3 -14 -5 -27 -17 -50 -47 -158 -46 -222 2 -31 24 -72 83 -63 91 8 8
210 24 237 19 60 -12 130 -99 165 -206 6 -19 33 -22 98 -10 l38 7 -147 208
-147 207 -56 -1 c-30 -1 -75 -5 -99 -10z m332 -600 c64 -144 114 -266 111
-271 -10 -16 -24 5 -59 84 -18 40 -69 155 -114 255 -44 100 -81 185 -81 188 0
3 6 5 14 5 8 0 60 -105 129 -261z"/>
<path d="M2955 4403 c-104 -115 -266 -209 -394 -229 -36 -6 -56 -26 -53 -54 1
-20 168 28 263 76 70 35 211 141 231 174 7 11 16 20 20 20 4 0 36 -18 70 -41
180 -116 397 -182 643 -195 127 -7 133 -6 119 30 -5 12 -20 16 -58 16 -71 0
-240 25 -336 50 -130 33 -267 99 -391 187 -26 18 -48 33 -50 32 -2 0 -31 -30
-64 -66z"/>
<path d="M3065 4104 c-620 -45 -1034 -137 -1475 -330 -47 -20 -88 -39 -92 -43
-4 -3 15 -73 43 -156 27 -82 49 -154 49 -160 0 -5 -23 -23 -52 -40 -132 -77
-238 -220 -253 -340 -17 -133 84 -279 218 -316 46 -12 46 -11 4 -226 l-32
-163 -72 -57 c-83 -66 -155 -157 -178 -222 -24 -71 -20 -168 11 -229 31 -63
100 -125 164 -149 26 -10 49 -21 50 -26 2 -9 -17 -126 -36 -216 -15 -76 -14
-78 74 -197 86 -116 204 -210 362 -289 41 -21 76 -39 78 -40 2 -2 -4 -14 -12
-28 -9 -13 -21 -62 -26 -108 -11 -92 -1 -581 11 -577 4 2 61 51 126 109 138
125 279 242 381 318 l72 53 104 -105 c131 -131 246 -228 358 -301 93 -61 316
-176 340 -176 20 0 408 323 408 340 0 3 -29 20 -65 38 -36 17 -65 36 -65 41 0
5 53 10 118 10 l117 2 38 36 c20 21 37 40 37 43 0 4 -29 17 -65 29 -36 13 -64
25 -63 27 2 1 53 8 112 14 l109 11 38 42 c21 23 38 45 39 48 0 4 -33 15 -72
24 -114 28 -113 34 7 36 61 1 114 1 119 0 9 -2 106 89 106 99 0 3 -45 17 -100
30 -55 14 -100 28 -100 32 0 5 60 8 133 8 l133 0 44 51 c24 28 50 58 58 65 18
18 17 18 -136 48 -68 14 -126 27 -130 30 -3 3 72 6 166 6 l171 0 45 60 c31 40
42 62 34 65 -7 3 -55 16 -106 28 -50 13 -94 26 -97 29 -3 3 52 20 122 37 70
18 145 36 165 42 l37 10 -6 64 -6 63 43 -9 c23 -5 43 -8 44 -7 1 2 19 30 41
63 94 144 164 272 209 389 l28 68 -21 48 c-26 61 -26 60 4 60 21 0 29 9 50 56
42 95 74 211 86 308 15 121 2 211 -51 347 -38 100 -39 104 -21 120 10 10 28
38 40 63 24 49 89 351 78 362 -4 4 -68 0 -144 -8 l-137 -15 -33 35 c-18 19
-33 44 -33 56 0 12 11 86 25 166 13 79 23 145 22 146 -1 1 -45 18 -97 38 -253
94 -565 163 -910 201 -136 15 -664 28 -785 19z m85 -179 c0 -19 3 -35 8 -35 4
0 20 16 35 35 21 26 36 35 57 35 35 0 36 -4 10 -37 -26 -33 -25 -41 3 -45 19
-3 22 -10 25 -49 3 -43 1 -47 -23 -53 -36 -9 -45 -1 -45 40 0 33 -2 35 -27 32
-24 -3 -28 -8 -31 -40 -3 -36 -5 -38 -38 -38 l-34 0 0 68 c0 37 -3 77 -6 89
-4 15 -1 22 13 26 46 12 53 8 53 -28z m594 15 c5 -5 5 -47 1 -95 l-7 -86 -31
3 c-26 2 -32 8 -34 28 0 14 -1 31 -2 38 -1 7 -14 12 -31 12 -28 0 -30 -3 -30
-35 0 -34 -2 -35 -36 -35 l-36 0 6 87 c4 47 9 90 12 95 7 10 175 -1 188 -12z
m-1040 -42 c3 -13 6 -37 6 -55 0 -49 9 -63 41 -63 22 0 29 5 29 19 0 20 18 31
51 31 15 0 19 -7 19 -39 0 -43 4 -41 -137 -57 -57 -6 -63 -5 -63 12 -1 11 -5
50 -10 89 -5 38 -6 73 -4 77 3 4 18 8 33 8 21 0 30 -6 35 -22z m1414 10 c69
-9 82 -14 82 -30 0 -14 -8 -18 -34 -18 l-33 0 -11 -66 c-6 -37 -13 -68 -15
-70 -2 -2 -18 -1 -36 2 -28 6 -31 10 -27 33 3 14 8 47 12 74 l6 47 -31 0 c-24
0 -31 4 -31 20 0 24 6 24 118 8z m-1744 -65 c15 -56 28 -133 23 -146 -6 -16
-167 -51 -179 -39 -12 12 -38 111 -38 144 0 20 6 29 23 33 130 30 164 32 171
8z m2183 -23 c28 -6 59 -17 69 -25 18 -13 18 -15 0 -86 -10 -41 -22 -78 -27
-83 -4 -5 -19 -6 -34 -2 -25 6 -26 10 -20 45 6 36 5 39 -22 44 -15 3 -29 4
-31 2 -4 -4 -10 -33 -11 -53 -1 -10 -10 -12 -33 -7 -18 4 -35 9 -37 11 -4 4
29 135 41 157 7 13 17 17 31 13 13 -3 45 -10 74 -16z m-2637 -68 c0 -4 -4 -12
-9 -17 -5 -6 -12 -20 -16 -32 -5 -20 -3 -23 18 -23 21 0 28 -8 41 -47 9 -26
16 -48 16 -49 0 -1 -14 -7 -31 -13 -29 -10 -31 -9 -45 24 -16 39 -14 38 -48
25 -23 -8 -25 -12 -16 -35 6 -15 10 -30 10 -34 0 -10 -51 -34 -57 -27 -3 3
-17 41 -32 86 -26 76 -27 82 -10 91 31 16 47 10 59 -23 l11 -33 21 47 c13 32
29 50 47 57 34 12 41 13 41 3z m1980 -120 c216 -30 423 -78 600 -140 44 -15
54 -23 52 -38 -2 -11 -5 -20 -6 -21 -1 -1 -31 6 -66 17 -36 11 -126 33 -200
49 -565 126 -1239 132 -1795 16 -66 -14 -123 -25 -128 -25 -5 0 -7 10 -5 22 4
26 35 37 208 73 286 58 489 74 885 70 241 -2 342 -8 455 -23z m-902 -186 c3
-39 -2 -73 -18 -122 -20 -61 -32 -78 -104 -149 -67 -67 -100 -91 -194 -138
-111 -57 -245 -107 -342 -128 l-50 -11 43 -49 c24 -28 72 -98 106 -157 143
-243 224 -340 344 -406 73 -41 175 -76 221 -76 20 0 27 -3 20 -10 -13 -13
-168 -19 -245 -9 -163 22 -295 91 -408 215 -35 38 -100 125 -146 194 -86 131
-120 170 -134 154 -4 -5 -15 -61 -25 -124 -23 -149 -26 -160 -42 -160 -8 0
-62 -18 -120 -40 -59 -22 -109 -40 -112 -40 -5 0 -5 3 37 225 67 356 121 650
121 663 0 19 -177 -75 -222 -119 -41 -40 -50 -81 -21 -97 15 -9 15 -16 -3 -98
-18 -86 -20 -89 -48 -92 -78 -9 -178 55 -190 121 -23 124 122 264 397 381 132
56 358 138 365 132 2 -3 -17 -116 -43 -251 -26 -135 -45 -248 -42 -252 12 -11
192 29 264 59 89 37 173 110 210 182 35 68 38 151 6 194 l-22 30 68 12 c115
19 305 36 315 28 5 -4 11 -32 14 -62z m1197 -18 c14 -6 28 -21 31 -33 3 -11
-11 -87 -30 -168 -20 -82 -36 -152 -36 -157 0 -5 19 0 43 10 23 10 70 26 105
36 62 17 63 17 90 -3 34 -27 34 -45 -11 -234 -19 -79 -45 -187 -57 -239 l-21
-95 -105 -37 c-57 -20 -104 -36 -104 -34 0 1 25 108 55 237 31 129 54 239 53
246 -2 9 -14 7 -43 -6 l-40 -18 -55 -238 c-30 -131 -60 -244 -67 -251 -14 -14
-202 -79 -209 -72 -2 3 11 67 30 144 18 76 41 171 50 209 9 39 38 166 66 283
35 149 50 235 50 283 l0 70 82 39 c93 45 88 44 123 28z m550 -24 c25 -10 35
-47 24 -89 -6 -20 -9 -39 -6 -41 2 -3 42 4 88 15 46 11 100 21 119 23 32 3 35
1 32 -22 -8 -55 -38 -124 -62 -141 -18 -13 -52 -20 -121 -25 l-95 -7 -41 -166
c-22 -91 -37 -169 -33 -174 3 -4 51 4 105 18 54 13 100 23 102 21 7 -7 -232
-175 -347 -243 -31 -19 -37 -20 -54 -7 -11 8 -31 14 -44 14 -18 0 -22 4 -18
18 3 9 28 109 56 222 28 113 53 213 57 224 4 16 1 18 -21 12 -30 -7 -31 -4
-15 62 7 28 22 55 37 68 22 18 24 26 20 74 -6 64 5 79 96 121 62 29 91 34 121
23z m-2151 -85 c-8 -49 -53 -118 -99 -154 -54 -41 -155 -84 -235 -101 -40 -8
-74 -13 -76 -11 -2 1 -1 12 2 24 4 16 21 24 72 37 163 39 287 133 313 237 11
42 14 47 21 29 4 -12 5 -39 2 -61z m780 -30 c8 -7 -7 -116 -21 -154 -2 -5 -27
-10 -56 -11 -30 0 -72 -10 -101 -22 -27 -12 -51 -20 -53 -18 -2 2 5 41 16 86
12 46 21 84 21 85 0 4 102 43 125 48 23 5 56 -1 69 -14z m-1494 -111 c0 -2
-14 -75 -31 -163 -16 -88 -36 -191 -43 -230 -85 -455 -77 -423 -113 -445 -27
-16 -33 -17 -33 -4 0 8 24 144 54 302 30 158 62 332 71 387 16 89 22 103 49
127 27 24 46 34 46 26z m1988 -24 c26 -18 28 -52 7 -138 -8 -34 -42 -173 -75
-311 -57 -235 -63 -252 -95 -285 -19 -19 -41 -52 -49 -72 -19 -45 -12 -42
-286 -97 l-34 -7 -74 -318 -74 -319 -45 -53 c-46 -53 -78 -67 -219 -101 -15
-3 -37 7 -70 32 -37 29 -120 75 -161 91 -2 0 11 61 29 135 20 88 31 159 31
206 -1 43 4 76 11 81 16 13 154 68 199 80 33 9 40 8 68 -15 16 -14 32 -24 34
-21 6 6 53 202 50 206 -2 2 -34 10 -72 18 -38 8 -97 25 -130 38 -64 25 -153
81 -153 96 0 8 139 70 158 70 6 0 7 -14 2 -35 -5 -22 -4 -38 4 -44 16 -13 110
-31 163 -31 36 0 44 3 39 15 -12 32 12 61 74 89 124 56 188 42 177 -36 -3 -26
-1 -38 7 -38 19 0 150 65 162 81 16 20 43 118 34 124 -4 2 -35 -5 -68 -16 -57
-19 -62 -19 -86 -3 -20 13 -38 15 -76 10 -28 -4 -50 -4 -50 -1 0 3 12 54 26
113 15 59 29 150 33 202 l6 95 70 37 c99 53 205 96 288 118 89 23 117 24 145
4z m-570 -114 c12 -12 22 -27 22 -35 0 -13 -41 -190 -89 -388 l-16 -68 -59
-24 c-33 -13 -82 -38 -109 -55 -27 -17 -51 -29 -53 -27 -2 1 3 27 11 57 36
142 75 358 75 419 l0 67 68 32 c106 49 119 51 150 22z m-290 -26 c30 -20 28
-35 -21 -268 l-43 -199 -104 -44 c-57 -24 -105 -41 -108 -39 -2 3 16 92 41
198 25 106 43 195 41 197 -7 8 -77 -24 -85 -39 -4 -8 -22 -78 -39 -155 -41
-184 -37 -175 -61 -146 -11 13 -44 64 -75 113 l-54 88 9 63 c5 34 8 77 7 95
-1 32 1 33 66 56 37 13 95 37 129 54 l61 30 -7 -35 c-5 -28 -3 -34 7 -30 77
34 186 77 198 77 9 0 26 -7 38 -16z m1982 -263 c13 -80 3 -179 -32 -297 -18
-64 -25 -75 -47 -81 -43 -10 -142 -63 -148 -79 -3 -8 2 -22 10 -32 8 -9 32
-46 52 -82 l37 -65 -71 -140 c-39 -77 -81 -153 -94 -169 l-23 -29 -103 13
c-100 12 -272 8 -383 -10 -33 -5 -48 -4 -48 4 0 6 10 52 22 103 l22 92 48 11
c27 5 60 10 74 10 25 0 53 24 157 138 38 40 39 43 23 61 -16 18 -17 24 -2 81
18 70 21 156 6 165 -5 3 -10 15 -10 25 0 13 23 32 73 61 152 89 393 262 405
291 9 20 21 -8 32 -71z m-2793 -175 c109 -178 210 -284 328 -342 54 -27 62
-34 35 -28 -111 21 -281 157 -373 299 -25 39 -56 84 -70 102 -17 24 -22 41
-19 65 l5 32 28 -34 c15 -18 45 -61 66 -94z m-63 -153 c9 -26 102 -123 171
-178 33 -27 88 -61 123 -77 72 -33 70 -19 30 -171 -40 -154 -134 -251 -291
-301 -16 -5 -13 -11 22 -38 22 -18 76 -62 120 -98 144 -118 259 -160 432 -160
105 0 238 23 315 54 l39 16 -40 -35 c-58 -50 -161 -110 -235 -136 -89 -31
-293 -38 -395 -15 -101 24 -198 75 -300 158 -101 83 -155 118 -178 118 -21 0
-15 23 -74 -315 -8 -49 -17 -92 -19 -93 -12 -15 -174 134 -174 160 0 10 48
271 105 573 20 104 40 194 45 200 12 14 209 109 215 104 3 -4 -64 -378 -80
-447 -5 -20 -3 -22 22 -16 51 12 98 42 140 87 48 52 74 100 97 177 17 55 17
55 -6 70 -44 29 -126 111 -169 171 -38 52 -47 59 -69 54 -84 -21 -322 -160
-355 -208 -20 -28 -19 -64 1 -75 15 -8 15 -16 -3 -93 l-19 -84 -49 -3 c-143
-8 -211 128 -126 252 64 92 240 197 501 299 192 75 196 76 204 50z m2271 -8
c19 -18 25 -35 25 -65 0 -55 -40 -221 -54 -225 -113 -28 -186 -41 -186 -31 0
6 9 44 19 84 10 39 16 72 13 72 -3 0 -25 -15 -48 -32 -46 -35 -48 -38 -80
-178 -9 -41 -29 -122 -43 -179 l-26 -105 -104 -21 -103 -22 5 31 c3 17 27 121
52 231 35 154 45 212 41 251 -7 60 -3 65 69 86 28 9 81 27 119 42 l69 26 -7
-31 -6 -31 49 45 c89 80 152 97 196 52z m-567 -181 c12 -8 22 -23 22 -32 0 -9
-14 -79 -32 -154 l-31 -138 -82 0 c-45 0 -107 -5 -138 -11 -55 -11 -57 -13
-68 -53 -5 -22 -12 -49 -15 -58 -7 -23 -12 -24 146 16 74 19 138 32 142 30 4
-3 -10 -37 -32 -76 l-38 -71 -114 -34 c-62 -18 -147 -43 -189 -54 l-77 -22
-23 22 c-12 11 -29 21 -36 21 -17 0 -19 -8 28 180 27 107 42 192 44 243 1 43
6 82 11 86 5 4 38 13 74 20 36 7 106 26 155 41 106 34 194 58 215 59 9 1 26
-6 38 -15z m-1193 -89 c79 -13 95 -24 94 -64 -1 -46 -13 -79 -23 -63 -11 19
-96 14 -145 -8 -24 -11 -46 -19 -48 -16 -3 3 20 113 33 155 3 8 13 11 27 8 12
-3 40 -9 62 -12z m-470 -196 c-10 -34 -32 -79 -47 -100 -29 -41 -102 -99 -124
-99 -22 0 -4 36 27 54 40 24 84 86 104 147 17 49 17 50 -8 82 -13 18 -32 48
-42 67 -15 32 -11 29 46 -27 l63 -62 -19 -62z m-409 84 c-5 -16 -67 -345 -112
-592 -15 -86 -18 -93 -31 -75 -28 37 -30 50 -17 114 7 36 31 169 54 295 38
212 44 232 68 252 32 27 45 29 38 6z m916 -80 c10 -9 18 -27 18 -40 0 -30 -90
-425 -99 -436 -6 -5 -165 64 -179 78 -2 2 6 47 18 101 11 54 20 125 19 158 -2
54 0 61 26 82 41 32 126 73 154 74 14 0 33 -7 43 -17z m1848 -324 c-559 -61
-1171 -251 -1613 -500 -249 -140 -530 -334 -767 -528 -41 -33 -77 -61 -80 -61
-3 0 -4 62 -2 137 3 112 7 142 20 157 40 44 263 179 467 281 516 260 1082 434
1625 500 170 20 189 22 315 22 l110 0 -75 -8z m-2516 -163 c17 -13 42 -34 56
-46 148 -132 277 -189 434 -191 54 -1 64 -3 41 -9 -86 -22 -232 0 -332 51 -33
17 -98 60 -143 95 -44 36 -92 69 -105 74 -17 7 -22 14 -18 29 7 28 29 26 67
-3z m2130 -10 c-121 -31 -420 -127 -454 -147 -19 -11 -29 -10 183 -9 156 1
346 -14 334 -27 -2 -2 -58 -8 -123 -14 -66 -6 -164 -19 -219 -29 -106 -21
-274 -68 -289 -82 -6 -4 39 -8 100 -8 137 0 444 -34 430 -47 -2 -3 -60 -11
-128 -19 -166 -18 -461 -65 -471 -74 -7 -6 90 -21 390 -62 88 -12 102 -28 25
-28 -46 0 -284 -28 -412 -49 -36 -6 -69 -11 -74 -11 -31 0 21 -13 189 -47
l190 -38 -60 -7 c-90 -12 -396 -71 -391 -75 2 -2 53 -21 112 -42 187 -66 183
-62 84 -76 -47 -7 -112 -18 -145 -25 l-60 -13 39 -13 c50 -18 126 -56 125 -63
0 -6 -104 -93 -176 -149 l-44 -33 -97 51 c-98 53 -248 153 -312 210 -19 17
-88 83 -152 148 l-118 116 23 24 c92 100 348 257 612 377 326 148 803 292 975
293 35 1 16 -7 -86 -32z"/>
<path d="M2207 2884 c-3 -3 8 -18 25 -32 17 -14 80 -100 140 -191 169 -255
251 -347 357 -400 64 -33 87 -33 29 -1 -118 66 -216 176 -338 380 -124 208
-182 274 -213 244z"/>
<path d="M4364 3083 c4 -11 -18 -129 -49 -261 -30 -133 -55 -246 -55 -253 0
-6 5 -9 12 -7 14 5 15 8 79 282 52 219 53 243 20 254 -9 3 -11 -2 -7 -15z"/>
<path d="M3825 3088 c0 -29 -17 -120 -38 -203 -20 -82 -51 -211 -69 -285 -28
-121 -35 -140 -69 -178 -44 -50 -66 -102 -44 -102 8 0 22 17 30 38 9 20 31 53
49 72 30 31 37 52 66 175 18 77 50 211 71 297 41 167 46 207 27 226 -20 20
-23 14 -23 -40z"/>
<path d="M3630 3002 c-34 -17 -35 -19 -69 -160 -18 -78 -31 -146 -27 -149 3
-3 22 1 43 8 l38 15 27 114 c35 147 42 190 31 190 -4 -1 -24 -9 -43 -18z"/>
<path d="M3315 2452 c7 -33 3 -55 -87 -437 -96 -407 -98 -420 -74 -395 12 12
191 746 199 812 1 12 -8 26 -22 36 -23 16 -23 16 -16 -16z"/>
<path d="M2950 1878 c-13 -51 -28 -119 -35 -151 l-13 -58 39 -19 c35 -19 38
-19 43 -2 13 43 56 236 56 251 0 16 -48 71 -62 71 -4 0 -16 -42 -28 -92z"/>
<path d="M4504 2068 c-56 -60 -58 -63 -34 -66 14 -1 53 -9 87 -18 72 -19 93
-14 93 20 0 25 -57 117 -76 123 -6 2 -37 -25 -70 -59z"/>
<path d="M2070 1660 c0 -5 4 -10 9 -10 5 0 46 -33 92 -73 120 -104 159 -133
219 -163 70 -35 143 -54 205 -53 l50 1 -72 13 c-122 23 -217 76 -348 197 -38
35 -81 72 -95 81 -27 19 -60 23 -60 7z"/>
<path d="M3490 1271 c-283 -104 -616 -289 -785 -435 l-40 -35 20 -20 20 -20
79 65 c206 170 453 316 776 461 47 22 5 12 -70 -16z"/>
<path d="M3231 1064 c-117 -65 -237 -151 -329 -235 -44 -42 -44 -42 -29 -73
25 -51 151 -196 229 -264 103 -89 178 -145 186 -137 7 7 16 655 10 713 l-3 32
-64 -36z"/>
</g>
</svg>
