<?xml version="1.0" standalone="no"?>
<!DOCTYPE svg PUBLIC "-//W3C//DTD SVG 20010904//EN"
 "http://www.w3.org/TR/2001/REC-SVG-20010904/DTD/svg10.dtd">
<svg version="1.0" xmlns="http://www.w3.org/2000/svg"
 width="640.000000pt" height="640.000000pt" viewBox="0 0 640.000000 640.000000"
 preserveAspectRatio="xMidYMid meet">
<metadata>
Created by potrace 1.15, written by Peter Selinger 2001-2017
</metadata>
<g transform="translate(0.000000,640.000000) scale(0.100000,-0.100000)"
fill="#000000" stroke="none">
<path d="M2000 6327 c-14 -74 -44 -132 -83 -161 -26 -19 -42 -21 -152 -20
l-124 0 21 -30 c30 -45 142 -150 183 -172 42 -22 43 -31 10 -46 -14 -6 -25
-14 -25 -18 0 -3 26 -19 58 -35 l57 -29 -55 -9 c-94 -15 -314 -3 -410 22 -210
55 -338 158 -500 399 -30 45 -57 82 -60 82 -3 0 -4 -524 -2 -1164 l2 -1164
-70 -38 c-63 -35 -69 -41 -67 -67 2 -27 -2 -30 -47 -45 -27 -9 -94 -39 -150
-66 l-101 -51 -3 -50 c-1 -29 -13 -72 -29 -103 -22 -44 -25 -61 -20 -107 3
-30 13 -69 21 -86 10 -20 14 -45 10 -68 -3 -20 0 -56 6 -81 22 -83 20 -142 -6
-173 -32 -38 -40 -102 -19 -155 21 -53 91 -115 152 -136 52 -18 67 -13 60 20
-5 28 3 29 58 8 l41 -15 1 -67 c0 -39 7 -84 17 -107 20 -47 98 -165 108 -165
4 0 5 21 2 48 l-5 47 21 -50 c11 -27 20 -72 20 -100 0 -62 15 -200 36 -325
110 -669 469 -1155 1139 -1541 130 -75 473 -242 670 -327 190 -82 419 -172
439 -172 39 0 492 191 776 327 662 317 1051 656 1283 1119 118 235 193 529
218 854 6 85 18 169 25 185 14 29 14 29 9 -20 l-5 -50 34 40 c66 76 111 197
99 270 -5 30 -2 33 39 48 57 22 58 22 58 -14 0 -29 2 -31 28 -24 47 11 125 61
156 99 24 29 31 49 34 96 4 52 1 66 -22 100 -30 46 -33 84 -11 166 8 33 12 73
9 96 -4 25 -2 43 7 54 7 9 15 51 17 101 4 75 2 88 -17 113 -15 20 -21 44 -21
78 0 26 -6 56 -12 65 -16 20 -192 103 -254 119 -42 12 -45 15 -41 41 3 26 -2
33 -41 58 -25 16 -54 31 -64 35 -17 5 -18 53 -18 1181 l0 1176 -51 -74 c-27
-41 -66 -98 -85 -126 -57 -85 -172 -184 -266 -232 -135 -68 -215 -84 -408 -85
-91 -1 -187 3 -215 8 l-50 8 30 14 c17 8 52 23 79 34 48 20 49 21 30 41 -18
20 -18 21 -1 30 62 35 206 181 207 210 0 4 -19 3 -42 -3 -24 -5 -80 -8 -125
-6 -64 2 -88 8 -110 24 -40 29 -69 87 -83 161 l-12 63 -52 -77 c-56 -85 -122
-142 -195 -168 -96 -33 -102 -40 -86 -91 6 -19 -2 -23 -122 -52 -147 -36 -327
-66 -496 -83 -159 -15 -577 -7 -717 16 -102 16 -312 65 -364 84 -24 10 -24 11
-10 39 21 42 11 56 -54 76 -108 33 -198 111 -253 218 -11 21 -21 38 -23 38 -2
0 -9 -28 -16 -63z m-814 -597 c209 -132 566 -167 919 -90 28 6 82 20 121 31
l71 21 144 -26 c283 -52 678 -69 1004 -46 187 14 271 25 454 62 l155 30 60
-20 c78 -27 196 -56 314 -77 142 -26 435 -17 552 17 98 29 175 60 243 100 26
15 52 28 57 28 6 0 10 -300 9 -802 l0 -803 -21 25 c-11 14 -25 32 -32 40 -16
22 -76 63 -77 53 -1 -4 0 -22 1 -39 1 -24 -4 -33 -19 -37 -22 -5 -52 15 -130
88 -23 22 -67 57 -97 77 -168 114 -414 101 -534 -28 l-35 -38 40 31 c62 47
103 65 165 70 117 11 222 -34 340 -144 37 -35 36 -54 -2 -30 -65 40 -239 48
-343 15 l-40 -12 85 -7 c97 -9 182 -36 251 -80 45 -29 79 -59 65 -59 -3 0 -45
12 -93 26 -73 22 -110 26 -213 27 -145 2 -200 -9 -317 -63 -63 -30 -98 -55
-160 -115 -43 -42 -69 -74 -58 -71 11 3 58 17 105 32 117 36 237 39 298 6 23
-12 40 -26 38 -31 -3 -4 -34 -18 -68 -31 -69 -25 -162 -69 -156 -75 1 -2 28 3
58 11 69 19 241 15 285 -6 36 -18 75 -90 75 -139 l0 -34 -43 46 c-67 73 -175
110 -207 72 -17 -20 -3 -36 66 -76 80 -45 79 -53 -4 -45 -39 4 -86 11 -103 16
-18 5 -34 8 -36 6 -2 -2 10 -18 27 -36 16 -18 30 -33 30 -35 0 -1 -14 -5 -31
-9 -73 -14 -129 -76 -129 -140 0 -26 0 -26 30 -11 38 19 117 19 177 -1 26 -8
108 -45 181 -81 92 -46 149 -68 183 -71 60 -6 59 -16 -4 -59 -100 -67 -258
-109 -377 -98 l-74 6 19 -21 c26 -29 168 -97 240 -115 33 -8 92 -18 130 -23
l70 -9 -65 -31 c-177 -87 -433 -82 -563 10 l-29 21 12 -23 c21 -38 134 -143
194 -179 69 -41 156 -71 208 -71 48 0 49 -15 2 -30 -36 -12 -133 -9 -183 6
l-25 7 23 -32 c47 -66 163 -116 210 -91 31 16 27 -11 -6 -52 -36 -42 -61 -65
-96 -84 -43 -23 -26 -28 36 -10 71 21 140 75 187 147 20 32 40 56 42 54 10
-11 -15 -144 -36 -191 -45 -97 -146 -125 -281 -76 -32 12 -63 22 -67 22 -5 0
3 -23 17 -51 59 -115 168 -183 297 -183 56 0 77 5 132 34 76 38 164 123 209
200 16 27 33 50 38 50 11 0 3 -75 -16 -153 -8 -32 -15 -61 -15 -63 0 -10 57
35 94 73 20 21 42 50 49 65 6 16 16 28 21 28 9 0 3 -62 -10 -94 -6 -16 -4 -17
14 -7 31 17 33 14 27 -31 -53 -399 -160 -673 -373 -953 -137 -180 -375 -379
-647 -540 -93 -55 -384 -205 -500 -257 -278 -126 -510 -220 -540 -220 -48 0
-470 181 -759 325 -798 398 -1169 836 -1287 1521 -23 132 -25 176 -7 158 7 -7
18 -12 25 -12 10 0 10 5 -2 24 -9 14 -15 39 -13 57 l3 33 37 -56 c34 -51 128
-132 128 -110 0 5 -7 28 -14 51 -18 50 -32 161 -20 161 5 0 23 -23 39 -52 45
-76 136 -162 208 -197 83 -40 132 -46 207 -27 111 29 169 76 226 182 25 48 21
52 -31 29 -19 -7 -61 -19 -93 -25 -100 -20 -172 12 -211 93 -20 41 -44 187
-31 187 4 0 21 -22 38 -49 54 -83 134 -141 216 -157 28 -5 37 -4 32 5 -4 6
-12 11 -18 11 -19 0 -97 70 -113 100 -21 41 -20 53 6 40 47 -26 154 23 210 94
l23 29 -30 -7 c-62 -15 -131 -18 -172 -7 -52 15 -55 31 -4 31 117 0 301 112
390 237 l22 31 -81 -42 -81 -41 -137 0 c-122 0 -145 3 -221 28 -47 15 -96 36
-109 46 l-25 19 70 7 c94 9 171 29 248 64 64 29 136 77 136 90 0 4 -29 3 -64
-2 -83 -13 -212 10 -304 53 -69 32 -132 75 -132 89 0 5 21 11 48 13 30 3 89
25 167 64 66 33 146 70 178 82 69 26 162 29 191 7 28 -21 36 -19 36 10 0 58
-64 128 -128 141 -18 4 -32 9 -32 11 0 3 14 18 30 35 36 36 33 44 -12 30 -51
-16 -168 -26 -168 -14 0 5 8 12 18 16 38 13 107 63 110 80 14 69 -143 29 -208
-53 -18 -23 -36 -41 -40 -41 -12 0 8 101 25 126 30 47 60 57 173 61 72 3 124
0 160 -10 28 -8 52 -11 52 -8 0 6 -95 50 -184 86 -34 13 -38 17 -25 29 20 20
103 46 145 46 48 0 177 -28 238 -51 27 -10 52 -16 55 -13 11 10 -137 140 -194
171 -171 90 -396 106 -582 42 -74 -25 -81 -24 -52 7 51 55 182 104 304 113
l80 7 -40 13 c-22 6 -85 15 -140 18 -100 5 -124 1 -230 -42 -35 -14 34 53 109
106 76 54 145 79 216 79 60 0 132 -22 173 -52 53 -40 64 -43 32 -9 -16 18 -59
47 -95 64 -62 30 -71 32 -181 32 l-116 0 -84 -42 c-51 -26 -106 -63 -140 -96
-89 -85 -120 -106 -146 -96 -19 7 -21 12 -13 38 13 46 -11 40 -70 -15 l-50
-47 0 792 c0 502 4 791 10 791 5 0 30 -13 56 -30z m-86 -1817 c0 -3 -7 -15
-17 -25 -9 -10 -14 -20 -11 -23 2 -3 39 2 82 10 134 26 205 17 283 -35 l42
-29 37 30 c20 16 60 36 87 44 58 17 137 20 137 5 0 -5 -7 -10 -15 -10 -26 0
-78 -30 -118 -68 -40 -39 -77 -122 -77 -176 0 -71 -33 -117 -124 -175 l-50
-31 35 0 c18 0 77 14 129 31 125 40 247 49 326 24 30 -9 52 -20 49 -23 -3 -3
-27 -7 -53 -9 -75 -4 -139 -22 -264 -74 -133 -56 -209 -73 -279 -64 -44 6 -49
5 -49 -12 0 -11 22 -43 49 -70 58 -59 66 -90 58 -200 -9 -116 -29 -128 -188
-113 -54 5 -98 5 -103 0 -24 -24 -7 -89 58 -219 61 -122 79 -181 57 -181 -5 0
-11 13 -14 28 -7 36 -119 158 -135 148 -28 -17 -9 -165 33 -261 15 -35 15 -38
1 -26 -26 22 -83 131 -96 183 -10 39 -9 56 5 100 16 53 16 53 -9 99 -26 46
-27 46 -90 52 -59 6 -266 73 -266 87 0 3 46 6 103 7 56 0 113 6 127 11 l25 11
-23 0 c-21 1 -18 5 20 34 61 46 107 140 115 236 4 54 9 69 16 56 15 -27 3
-185 -16 -222 -14 -26 -14 -31 -3 -27 8 3 24 29 37 57 19 43 23 70 23 154 1
88 -2 105 -20 130 -19 25 -27 28 -80 27 -33 0 -97 -10 -144 -23 -59 -16 -97
-21 -127 -16 -38 6 -43 9 -43 33 0 34 31 102 56 123 35 29 64 30 92 2 l26 -26
28 32 c45 50 35 63 -59 81 -104 21 -145 38 -141 59 4 24 136 87 225 107 43 10
79 19 81 20 2 1 -4 14 -14 29 -21 33 -15 40 67 70 62 23 119 32 119 18z m4302
-14 c35 -11 72 -27 82 -34 18 -14 18 -15 2 -40 -10 -15 -16 -28 -14 -29 2 -1
37 -10 80 -20 78 -18 210 -74 223 -96 14 -23 -25 -43 -126 -66 -56 -13 -104
-25 -106 -28 -8 -7 35 -73 51 -79 8 -3 22 3 32 14 26 29 71 24 104 -11 28 -30
57 -111 46 -129 -18 -29 -104 -21 -266 24 -113 31 -145 -6 -145 -170 0 -84 4
-108 23 -147 13 -25 30 -49 38 -52 12 -5 12 -2 0 22 -22 43 -35 123 -29 175 7
61 23 71 23 15 0 -102 48 -205 122 -258 37 -27 39 -30 17 -31 l-24 0 25 -10
c14 -6 71 -11 127 -12 57 -1 103 -4 103 -7 0 -15 -210 -82 -272 -87 -44 -4
-68 -10 -68 -18 0 -7 -11 -29 -25 -49 -23 -34 -24 -39 -10 -59 34 -49 11 -170
-50 -263 -41 -62 -57 -66 -27 -7 11 21 25 62 32 91 12 53 10 146 -4 160 -11
10 -136 -125 -136 -148 0 -10 -4 -22 -10 -25 -28 -17 -3 62 56 178 57 112 65
134 62 175 l-3 47 -125 -3 c-169 -5 -165 -8 -165 142 l0 115 53 53 c74 76 71
83 -36 84 -91 1 -109 6 -286 79 -49 21 -119 42 -155 47 -36 5 -79 13 -96 17
l-30 8 30 14 c19 8 70 13 140 14 98 0 121 -4 209 -32 54 -18 114 -33 133 -33
l35 0 -63 43 c-77 51 -104 89 -113 159 -9 74 -24 117 -54 157 -28 37 -107 91
-134 91 -10 0 -18 5 -18 10 0 15 80 12 134 -4 26 -8 62 -26 81 -40 18 -14 38
-26 44 -26 5 0 32 14 59 31 64 39 136 46 256 25 49 -9 92 -14 94 -11 3 3 -2
13 -11 23 -35 39 -8 42 85 11z m-4742 -589 c20 0 69 9 109 20 40 12 78 19 83
18 17 -6 -37 -73 -57 -71 -11 1 -24 -6 -30 -14 -9 -11 -14 -13 -19 -5 -13 22
-24 12 -36 -35 -11 -46 -12 -47 -26 -28 -9 11 -18 32 -21 48 -5 23 -8 25 -20
15 -12 -10 -18 -9 -29 6 -13 18 -14 18 -24 -8 -15 -41 -30 -22 -30 39 l0 55
33 -20 c17 -11 48 -20 67 -20z m4965 20 c83 -23 141 -25 175 -5 37 21 40 19
40 -34 0 -57 -15 -75 -30 -35 -10 26 -11 26 -25 8 -12 -16 -16 -16 -24 -5 -12
19 -31 5 -31 -23 0 -12 -6 -31 -14 -42 -14 -18 -15 -18 -22 11 -12 52 -23 68
-40 55 -11 -10 -15 -9 -20 5 -5 11 -14 15 -28 11 -16 -4 -26 3 -43 29 -35 53
-37 53 62 25z m-4248 -500 c74 -45 124 -150 141 -299 10 -82 16 -100 42 -133
41 -50 21 -49 -31 3 -53 53 -75 105 -88 209 -12 102 -29 147 -77 200 -40 44
-36 50 13 20z m3661 -17 c-52 -55 -68 -93 -80 -196 -6 -50 -17 -106 -25 -125
-15 -37 -99 -132 -116 -132 -6 0 -1 10 10 23 35 37 44 64 54 159 14 127 41
191 105 255 62 62 111 77 52 16z m-18 -273 c-69 -269 -159 -384 -302 -382 -44
1 -76 9 -124 31 -35 16 -64 32 -64 35 0 3 20 3 44 0 149 -21 307 100 414 317
26 52 48 92 50 88 2 -4 -6 -44 -18 -89z m-3533 -132 c86 -117 194 -182 305
-183 38 0 68 -2 68 -6 0 -9 -90 -49 -135 -59 -31 -7 -60 -6 -96 1 -103 22
-192 150 -244 352 -14 53 -25 103 -25 110 0 6 21 -28 46 -78 25 -49 62 -111
81 -137z"/>
<path d="M3130 5193 c0 -104 -4 -172 -9 -163 -5 8 -21 69 -35 135 -15 66 -31
137 -37 158 l-10 37 -93 0 c-51 0 -108 -3 -126 -6 l-32 -7 3 -410 c2 -226 5
-423 7 -439 l4 -28 104 0 104 0 1 183 c1 203 1 203 54 -25 l37 -158 119 0 119
0 0 450 0 450 -105 0 -105 0 0 -177z"/>
<path d="M3599 5355 c-54 -17 -100 -61 -127 -119 -35 -74 -45 -167 -40 -386 4
-181 7 -212 26 -261 24 -60 61 -102 105 -118 46 -18 148 -13 189 8 30 15 38
16 42 5 4 -10 27 -14 86 -14 l80 0 0 240 0 240 -22 4 c-13 3 -76 7 -140 10
l-118 6 0 -95 0 -95 31 0 31 0 -4 -61 c-3 -38 -10 -64 -19 -70 -43 -27 -53 10
-57 221 -4 208 4 287 30 304 27 17 41 -6 46 -72 l4 -59 76 -7 c41 -3 90 -6
109 -6 33 0 33 0 33 48 0 110 -58 217 -140 259 -59 30 -158 38 -221 18z"/>
<path d="M2573 5338 l-93 -10 0 -429 0 -430 113 3 112 3 3 285 c2 157 0 354
-3 438 -6 132 -9 152 -24 151 -9 -1 -58 -6 -108 -11z"/>
<path d="M2350 5314 c-161 -25 -140 -10 -196 -137 l-49 -112 -3 103 c-2 72 -6
102 -15 102 -7 0 -57 -11 -112 -23 l-100 -22 -3 -378 -2 -377 115 0 114 0 3
110 c2 61 7 111 12 113 4 1 29 -49 55 -110 l46 -113 128 0 c70 0 127 3 127 6
0 3 -12 31 -26 62 -14 31 -46 102 -71 156 -24 55 -60 130 -79 168 l-34 68 95
196 c52 108 95 198 95 200 0 2 -3 3 -7 3 -5 -1 -46 -7 -93 -15z"/>
<path d="M4150 5289 c-36 -14 -69 -48 -93 -94 -17 -32 -21 -58 -21 -130 0 -79
3 -97 27 -143 29 -56 76 -95 167 -142 72 -36 92 -60 88 -101 -7 -72 -65 -59
-75 19 -6 47 -12 49 -140 51 l-83 2 0 -49 c0 -78 25 -145 69 -185 47 -42 93
-58 174 -60 91 -2 149 10 201 44 80 50 114 163 82 273 -21 71 -82 136 -171
185 -33 17 -70 40 -82 50 -31 26 -46 67 -33 92 23 43 60 10 60 -54 l0 -34 78
-12 c42 -7 92 -15 111 -18 l34 -6 -6 61 c-9 86 -33 136 -85 182 -73 65 -225
99 -302 69z"/>
<path d="M2010 4181 c-19 -4 -44 -13 -55 -20 -18 -11 -17 -12 9 -6 42 9 129
-12 221 -53 100 -45 164 -49 219 -11 20 13 36 26 36 29 0 3 -32 4 -71 2 -58
-4 -86 1 -162 26 -107 35 -149 42 -197 33z"/>
<path d="M4300 4179 c-25 -4 -80 -19 -122 -34 -62 -21 -91 -26 -148 -23 -81 3
-85 -6 -20 -40 59 -31 99 -26 225 28 80 35 112 44 162 44 52 1 58 3 40 12 -32
16 -86 22 -137 13z"/>
<path d="M2703 3783 c20 -70 122 -419 138 -467 10 -33 19 -69 19 -79 0 -11
-28 -110 -61 -221 -54 -175 -139 -457 -155 -508 -5 -17 6 -18 130 -18 l135 0
25 83 c14 45 39 132 56 192 18 61 36 116 40 124 5 9 23 -34 49 -120 23 -74 52
-165 65 -204 l23 -70 152 -3 153 -3 -7 23 c-6 21 -113 356 -187 586 l-30 93
27 82 c78 242 165 515 165 521 0 4 -57 5 -126 4 l-126 -3 -53 -178 c-29 -98
-56 -181 -59 -184 -7 -7 -7 -8 -57 182 -23 88 -46 166 -52 173 -7 8 -47 12
-139 12 -118 0 -129 -1 -125 -17z"/>
<path d="M3510 3145 l0 -655 140 0 140 0 0 655 0 655 -140 0 -140 0 0 -655z"/>
<path d="M1908 3205 c-2 -3 -48 -6 -101 -7 -53 0 -97 -3 -97 -4 0 -2 24 -16
53 -31 49 -25 61 -27 192 -28 105 -1 151 -6 184 -18 24 -10 47 -15 49 -12 12
12 -82 84 -124 94 -44 11 -147 15 -156 6z"/>
<path d="M4328 3199 c-37 -11 -128 -82 -118 -93 3 -3 26 2 50 11 33 13 81 17
185 18 127 1 144 3 188 25 64 32 67 40 15 37 -24 -1 -97 1 -163 5 -74 4 -134
3 -157 -3z"/>
<path d="M1740 1844 c-115 -174 -210 -319 -210 -323 1 -8 167 -131 177 -131 5
0 39 48 77 106 38 57 73 107 78 110 4 3 21 -4 37 -16 119 -84 226 -78 313 18
45 50 54 67 72 135 17 64 8 123 -27 175 -17 26 -230 196 -294 235 -8 5 -80
-94 -223 -309z"/>
<path d="M4370 2090 c-32 -17 -72 -51 -238 -202 l-54 -48 49 -58 c27 -31 136
-164 241 -294 106 -131 195 -238 198 -238 8 0 223 197 257 234 41 47 57 88 57
148 -1 117 -94 227 -196 231 -36 2 -43 5 -39 18 9 28 -12 98 -41 140 -56 82
-156 111 -234 69z"/>
<path d="M2256 1526 c-85 -227 -100 -275 -103 -338 -3 -63 -1 -79 19 -113 67
-115 276 -185 369 -122 62 42 94 98 172 308 42 112 87 234 101 270 l25 67
-101 41 c-56 23 -104 38 -108 34 -4 -4 -44 -109 -90 -233 -103 -282 -118 -317
-136 -324 -22 -8 -44 4 -44 25 0 11 45 140 100 288 55 148 100 273 100 277 0
9 -175 84 -195 84 -6 0 -55 -119 -109 -264z"/>
<path d="M3892 1719 c-87 -47 -112 -64 -108 -77 3 -9 26 -107 51 -217 26 -110
61 -263 80 -340 18 -77 36 -155 40 -172 4 -18 10 -33 14 -33 7 0 187 96 200
107 3 2 -3 27 -12 57 -9 29 -17 58 -17 64 0 18 97 64 103 49 3 -7 19 -31 36
-55 l31 -42 38 23 c20 13 65 38 100 57 34 18 62 37 62 41 0 5 -84 109 -187
231 -102 123 -213 256 -246 296 -33 39 -63 72 -66 72 -3 0 -57 -28 -119 -61z"/>
<path d="M3593 1583 c-58 -16 -93 -31 -93 -39 0 -7 9 -53 21 -101 66 -283 109
-488 105 -500 -15 -39 -66 20 -66 77 0 11 -5 20 -10 20 -21 0 -185 -43 -194
-50 -14 -13 34 -139 67 -176 44 -51 82 -67 152 -66 127 1 238 71 265 165 18
65 11 109 -59 419 -34 146 -61 269 -61 272 0 11 -33 5 -127 -21z"/>
<path d="M2811 1190 c-25 -215 -42 -392 -40 -394 7 -7 130 -26 170 -26 42 0
39 -10 60 193 7 64 14 115 17 112 2 -2 15 -75 28 -161 12 -85 24 -157 26 -159
3 -4 232 -34 235 -32 0 1 17 146 37 323 20 176 40 352 45 390 5 38 7 72 5 75
-2 3 -34 9 -71 13 -37 4 -84 9 -104 12 l-36 6 -12 -123 c-12 -115 -28 -212
-30 -181 -2 31 -44 307 -46 310 -4 4 -199 31 -225 32 -13 0 -23 -66 -59 -390z"/>
<path d="M1171 3740 c-46 -11 -111 -41 -111 -52 0 -5 7 -20 16 -33 15 -23 23
-25 93 -25 42 0 101 -7 131 -15 69 -19 75 -19 60 1 -23 26 -96 64 -140 72 -23
4 -42 12 -42 17 0 6 20 18 43 27 41 16 42 17 14 16 -16 0 -45 -4 -64 -8z"/>
<path d="M5172 3735 c26 -8 49 -19 52 -24 3 -5 -15 -14 -40 -20 -59 -15 -113
-43 -138 -70 -23 -25 -18 -25 54 -6 30 8 87 15 127 14 65 -2 74 0 92 22 11 13
20 29 21 35 0 18 -92 53 -156 59 l-59 5 47 -15z"/>
</g>
</svg>
