<?xml version="1.0" standalone="no"?>
<!DOCTYPE svg PUBLIC "-//W3C//DTD SVG 20010904//EN"
 "http://www.w3.org/TR/2001/REC-SVG-20010904/DTD/svg10.dtd">
<svg version="1.0" xmlns="http://www.w3.org/2000/svg"
 width="342.000000pt" height="342.000000pt" viewBox="0 0 342.000000 342.000000"
 preserveAspectRatio="xMidYMid meet">
<metadata>
Created by potrace 1.15, written by Peter Selinger 2001-2017
</metadata>
<g transform="translate(0.000000,342.000000) scale(0.100000,-0.100000)"
fill="#000000" stroke="none">
<path d="M1599 2469 c43 -23 90 -73 79 -84 -2 -3 -40 4 -83 15 -90 23 -219 26
-335 6 l-75 -12 69 -8 c37 -4 85 -14 105 -21 l36 -14 -45 0 c-126 -3 -289 -45
-443 -113 -53 -23 -95 -44 -93 -46 2 -1 41 8 87 21 80 23 199 43 199 34 0 -2
-39 -18 -87 -36 -140 -50 -320 -167 -418 -272 -29 -30 -28 -30 31 10 63 42
252 136 259 129 3 -2 -27 -30 -65 -61 -108 -88 -169 -174 -211 -296 -28 -80
-23 -93 12 -32 18 30 65 88 106 128 74 72 102 90 88 56 -65 -153 -27 -311 99
-413 17 -13 17 -10 -3 27 -26 52 -28 139 -5 208 l17 48 15 -29 c20 -40 49 -71
100 -106 24 -17 42 -37 42 -48 0 -16 -9 -20 -52 -23 l-53 -3 57 -2 c52 -2 57
0 60 20 2 19 19 4 92 -85 49 -59 92 -107 96 -107 7 0 41 133 35 138 -2 2 -9
-16 -15 -40 -24 -88 -19 -88 -98 5 -40 47 -72 88 -72 90 0 2 24 -4 54 -14 74
-25 136 -34 136 -20 0 6 8 11 18 11 9 0 -15 18 -54 40 -66 36 -134 98 -134
120 0 14 4 13 42 -9 51 -30 144 -51 229 -51 100 0 139 8 139 29 0 13 -9 15
-45 13 -58 -5 -200 14 -260 35 -61 20 -142 97 -151 141 -12 61 -24 43 -24 -35
-1 -71 -2 -76 -15 -59 -8 11 -15 30 -15 44 0 14 -4 21 -11 16 -8 -4 -9 1 -4
16 5 15 4 20 -4 16 -7 -5 -11 2 -11 16 0 13 -5 29 -10 34 -7 7 -5 18 8 35 21
27 34 59 25 59 -4 0 -17 -10 -30 -22 -24 -22 -33 -13 -10 11 9 11 9 14 0 18
-21 8 -15 25 6 18 11 -3 22 -1 26 4 4 7 -1 8 -11 4 -31 -12 -4 17 44 47 52 33
50 38 -5 15 -42 -18 -55 -12 -27 11 10 8 13 13 7 9 -7 -3 -13 -3 -13 2 0 10
75 44 148 68 73 23 59 29 -22 10 -37 -8 -81 -15 -99 -15 l-31 0 23 16 c35 25
187 63 281 71 l85 7 -55 8 c-30 5 -84 12 -120 16 l-65 8 66 12 c134 25 268 11
335 -34 20 -14 39 -22 42 -19 10 10 -109 115 -142 125 -25 8 -20 8 24 4 74 -8
163 -42 156 -59 -3 -9 0 -12 9 -9 19 8 65 -64 65 -100 0 -34 10 -28 26 17 l12
32 7 -27 c4 -16 11 -28 16 -28 5 0 6 -7 3 -15 -4 -8 -2 -15 4 -15 6 0 13 6 15
13 4 8 6 7 6 -3 0 -8 -15 -35 -34 -59 -19 -24 -35 -46 -35 -48 0 -3 23 12 51
32 28 20 54 34 57 31 3 -3 0 -6 -6 -6 -7 0 -12 -12 -12 -26 0 -14 4 -23 10
-19 6 3 10 2 10 -3 0 -16 -45 -51 -113 -86 -79 -42 -74 -46 15 -12 35 12 81
26 103 30 l39 8 -24 -21 c-21 -18 -22 -20 -5 -14 18 6 19 5 5 -12 -14 -16
-130 -75 -150 -75 -5 0 -21 -5 -35 -10 -23 -9 -25 -13 -15 -25 8 -10 32 -15
72 -15 54 0 64 4 104 36 l44 36 0 -26 c0 -24 4 -26 39 -26 22 0 41 -4 43 -9 5
-13 193 108 252 163 l51 46 -66 -35 c-77 -41 -189 -81 -256 -91 l-48 -7 80 60
c90 67 140 119 180 187 28 48 59 146 48 156 -3 3 -8 -1 -10 -8 -13 -36 -75
-101 -138 -143 -38 -26 -71 -46 -74 -44 -2 3 6 28 19 57 42 97 11 214 -69 267
-23 15 -24 15 -13 -6 16 -29 15 -76 -2 -117 -20 -48 -31 -51 -54 -12 -40 68
-156 127 -277 142 l-50 6 44 -23z"/>
<path d="M666 1940 c-150 -101 -235 -225 -244 -357 -4 -64 -1 -79 22 -127 48
-99 162 -174 296 -195 96 -16 114 -12 39 7 -158 42 -269 172 -269 318 0 107
81 259 190 357 29 26 50 47 47 47 -3 0 -39 -23 -81 -50z"/>
<path d="M2885 1849 c-4 -22 -5 -43 -2 -45 3 -3 8 13 12 35 l7 41 49 0 c27 0
49 -4 49 -8 0 -4 -13 -70 -30 -145 -16 -76 -30 -140 -30 -142 0 -3 -38 -5 -85
-5 -82 0 -85 1 -91 25 -9 35 -65 36 -88 1 l-16 -25 -202 2 c-129 1 -202 6
-201 12 1 6 4 27 8 49 7 36 7 38 -13 27 -15 -8 -23 -7 -32 4 -7 9 -15 13 -18
10 -9 -8 20 -35 39 -35 15 0 16 -4 8 -32 -13 -47 -13 -48 31 -48 22 0 40 -5
40 -10 0 -22 -63 -300 -67 -296 -3 2 -17 64 -31 138 l-27 133 -93 3 c-50 1
-92 -1 -92 -5 0 -4 30 -6 66 -5 113 6 107 12 138 -144 15 -75 31 -145 35 -157
5 -14 20 36 47 163 l40 183 89 -112 90 -112 22 93 c11 51 19 95 17 97 -5 5
-10 -11 -25 -79 -6 -30 -15 -61 -18 -68 -5 -8 -32 19 -79 78 -40 49 -72 92
-72 95 0 3 69 5 153 5 154 0 154 0 167 25 9 18 22 25 41 25 22 0 30 -6 35 -25
6 -24 9 -25 94 -25 49 0 91 4 94 9 7 10 66 279 66 298 0 9 -17 13 -59 13 l-59
0 -7 -41z"/>
<path d="M1805 1824 c-33 -29 -65 -54 -72 -54 -6 0 -28 23 -48 50 -20 28 -40
50 -44 50 -5 0 -61 -240 -61 -262 0 -5 13 -8 30 -8 31 0 35 7 55 109 l7 34 20
-31 c19 -31 20 -31 44 -14 13 9 24 21 24 25 0 5 4 6 9 3 8 -5 1 -56 -15 -108
-4 -15 1 -18 29 -18 l34 0 28 135 c15 75 26 138 24 140 -2 1 -31 -21 -64 -51z"/>
<path d="M2329 1825 c-35 -30 -68 -55 -74 -54 -5 0 -27 22 -49 50 -21 28 -41
48 -43 45 -5 -5 -62 -242 -63 -259 0 -5 14 -7 32 -5 30 3 32 6 46 66 7 34 17
62 21 62 4 0 14 -11 21 -25 l13 -25 35 27 35 26 -6 -24 c-3 -13 -9 -43 -13
-66 -6 -43 -6 -43 24 -43 29 0 30 2 47 78 9 42 23 104 30 137 7 33 12 61 11
62 -1 2 -31 -22 -67 -52z"/>
<path d="M1918 1862 c-25 -3 -27 -8 -44 -99 -22 -114 -13 -139 52 -162 36 -13
44 -12 86 7 58 25 76 53 99 150 24 102 24 108 -5 107 -33 0 -34 -2 -55 -89
-22 -91 -42 -118 -85 -114 -27 3 -31 8 -34 34 -2 17 4 60 12 95 8 35 12 66 8
69 -4 3 -19 4 -34 2z"/>
<path d="M2700 1863 c0 -1 5 -13 11 -27 10 -21 4 -34 -55 -124 -36 -55 -66
-103 -66 -106 0 -3 15 -6 33 -6 26 0 37 6 47 25 12 23 19 26 59 23 39 -3 46
-6 49 -25 3 -19 10 -23 39 -23 32 0 35 2 29 23 -3 12 -15 70 -27 129 l-21 106
-49 4 c-27 1 -49 2 -49 1z"/>
<path d="M2391 1743 c-13 -65 -26 -124 -29 -130 -7 -21 177 -18 207 3 32 23
51 72 40 102 -6 14 -5 30 1 42 14 26 13 73 -2 88 -8 8 -46 12 -103 12 l-91 0
-23 -117z"/>
<path d="M2915 1848 c-2 -7 -13 -58 -25 -113 -12 -55 -24 -108 -26 -117 -4
-15 1 -18 29 -18 l34 0 22 108 c12 59 24 117 27 130 6 19 3 22 -25 22 -17 0
-33 -6 -36 -12z"/>
<path d="M1255 1822 c6 -6 28 -21 51 -34 22 -13 52 -31 66 -41 35 -24 131 -57
168 -57 23 0 30 5 30 19 0 14 -11 22 -37 29 l-38 10 36 1 c20 1 42 8 49 16 11
13 1 15 -76 16 -79 0 -174 18 -239 44 -14 6 -17 5 -10 -3z"/>
<path d="M2624 1533 l58 -4 -5 -36 -6 -36 22 21 c50 47 165 67 234 41 32 -12
83 -57 83 -74 0 -6 -21 -27 -46 -45 -40 -28 -44 -34 -29 -42 9 -6 23 -25 31
-44 41 -97 -76 -215 -210 -214 -39 1 -102 23 -125 44 -26 23 -29 21 -37 -29
-3 -25 -9 -45 -13 -45 -3 0 -44 48 -90 106 -94 119 -88 118 -111 2 l-14 -67
-115 -4 -116 -3 120 1 120 0 14 73 c8 39 18 72 21 72 4 0 44 -45 90 -101 82
-99 99 -108 100 -54 1 42 14 48 56 23 53 -31 160 -31 220 0 100 52 140 164 82
229 l-20 21 46 34 c25 18 45 36 46 39 1 17 -45 60 -83 78 -57 28 -146 28 -206
1 -53 -24 -51 -24 -51 0 0 18 -6 20 -62 18 l-63 -2 59 -3z"/>
<path d="M2306 1353 c-21 -98 -40 -188 -43 -200 -5 -21 -2 -23 40 -23 51 0 46
-8 72 113 13 58 20 75 29 68 7 -6 46 -53 87 -105 41 -52 76 -95 79 -96 3 0 23
82 44 183 22 100 42 190 44 200 4 14 -3 17 -41 17 -51 0 -46 7 -72 -112 -9
-43 -20 -78 -25 -78 -4 0 -44 47 -90 105 -45 58 -83 105 -83 105 -1 0 -19 -80
-41 -177z"/>
<path d="M1062 1332 c-23 -103 -42 -191 -42 -195 0 -4 20 -7 44 -7 50 0 46 -7
71 112 9 43 20 76 24 73 4 -2 45 -49 92 -105 46 -55 87 -100 91 -100 5 0 8 7
8 16 0 8 18 97 40 196 22 100 40 183 40 185 0 2 -21 3 -47 1 l-47 -3 -19 -92
c-11 -51 -23 -93 -27 -93 -4 0 -45 45 -90 100 -46 55 -87 100 -90 100 -4 0
-25 -84 -48 -188z"/>
<path d="M987 1503 c-5 -7 -87 -357 -87 -368 0 -3 22 -5 48 -5 l48 0 37 173
c21 94 37 180 37 190 0 13 -9 17 -39 17 -22 0 -42 -3 -44 -7z"/>
<path d="M1417 1339 c-21 -96 -40 -182 -43 -191 -5 -16 5 -18 106 -18 77 0
122 5 147 15 123 52 186 184 135 285 -29 58 -71 74 -197 78 l-111 4 -37 -173z
m248 56 c30 -29 32 -68 5 -112 -30 -49 -79 -68 -166 -64 l-22 1 19 88 c11 48
21 93 24 100 3 7 25 12 60 12 46 0 60 -4 80 -25z"/>
<path d="M1526 1331 c-21 -94 -21 -101 9 -101 48 0 103 30 119 65 33 68 10
105 -66 105 l-46 0 -16 -69z m118 43 c21 -21 20 -42 -4 -81 -18 -29 -66 -53
-109 -53 -14 0 -11 31 10 113 9 35 12 37 49 37 22 0 45 -7 54 -16z"/>
<path d="M1805 1333 c-21 -98 -40 -184 -43 -191 -3 -10 7 -12 44 -10 l48 3 38
170 c20 94 37 178 38 188 0 14 -9 17 -43 17 l-43 0 -39 -177z"/>
<path d="M2030 1502 c0 -5 7 -17 15 -28 8 -10 14 -26 15 -34 0 -8 -36 -69 -81
-135 -44 -66 -87 -132 -95 -147 l-15 -28 50 0 c46 0 52 3 66 30 15 29 18 30
84 30 69 0 69 0 76 -30 6 -28 9 -30 55 -30 41 0 48 3 44 18 -2 9 -17 84 -34
167 -17 82 -33 160 -36 172 -6 21 -12 23 -75 23 -38 0 -69 -4 -69 -8z"/>
<path d="M2755 1496 c-46 -21 -83 -62 -90 -100 -14 -70 13 -95 120 -115 75
-14 88 -26 56 -52 -34 -28 -92 -25 -130 7 l-31 25 -35 -26 c-19 -15 -35 -29
-35 -32 0 -36 80 -82 144 -83 134 -1 248 119 189 198 -19 25 -44 34 -160 58
-25 5 -30 23 -11 42 20 20 92 15 122 -9 28 -22 29 -22 80 23 17 15 17 20 5 34
-35 42 -160 59 -224 30z"/>
</g>
</svg>
