<?xml version="1.0" standalone="no"?>
<!DOCTYPE svg PUBLIC "-//W3C//DTD SVG 20010904//EN"
 "http://www.w3.org/TR/2001/REC-SVG-20010904/DTD/svg10.dtd">
<svg version="1.0" xmlns="http://www.w3.org/2000/svg"
 width="640.000000pt" height="640.000000pt" viewBox="0 0 640.000000 640.000000"
 preserveAspectRatio="xMidYMid meet">
<metadata>
Created by potrace 1.15, written by Peter Selinger 2001-2017
</metadata>
<g transform="translate(0.000000,640.000000) scale(0.100000,-0.100000)"
fill="#000000" stroke="none">
<path d="M2693 6121 c-76 -54 -101 -80 -115 -118 -10 -28 -16 -33 -33 -28 -53
17 -141 17 -211 -1 -41 -10 -74 -21 -74 -24 0 -3 29 -18 65 -34 52 -22 66 -34
71 -55 11 -50 26 -91 34 -96 10 -6 -43 -95 -64 -107 -8 -4 -28 -1 -46 8 l-32
16 46 30 c25 17 44 33 42 37 -3 4 -42 8 -88 10 -72 2 -90 -1 -133 -23 -27 -14
-50 -26 -50 -26 -1 0 1 15 3 33 7 61 -16 118 -68 169 -27 25 -58 52 -70 58
-22 12 -22 11 -15 -54 l7 -66 -59 -78 c-33 -42 -68 -92 -77 -110 -28 -54 -31
-120 -9 -178 l20 -51 -33 -35 c-42 -47 -56 -97 -43 -157 13 -59 36 -95 98
-154 l51 -49 0 52 c0 69 28 110 74 110 19 0 39 -7 46 -15 29 -35 21 -209 -16
-344 -16 -58 -17 -59 -44 -50 -40 14 -97 -9 -134 -54 -28 -35 -31 -45 -31
-111 0 -52 5 -79 17 -99 17 -25 17 -29 -6 -99 -13 -40 -22 -75 -20 -77 2 -2
28 7 59 19 89 36 93 34 123 -40 18 -46 42 -81 81 -121 48 -47 66 -58 122 -73
38 -11 88 -17 117 -15 29 2 52 0 52 -4 0 -36 -104 -117 -151 -117 -26 0 -63
32 -88 78 -9 15 -12 15 -35 -7 -45 -42 -69 -106 -63 -163 6 -44 3 -55 -19 -84
-14 -18 -28 -52 -31 -74 -7 -47 20 -150 50 -193 21 -31 23 -23 -45 -158 -24
-48 -24 -149 -1 -187 9 -15 32 -44 51 -64 28 -29 36 -47 40 -88 2 -28 8 -52
12 -55 4 -3 27 8 51 24 44 30 63 32 52 6 -3 -10 2 -15 16 -15 27 0 27 -1 -12
-57 -174 -246 -264 -600 -228 -893 26 -208 84 -385 181 -545 231 -382 611
-620 1044 -654 163 -12 311 2 469 45 576 159 979 689 979 1287 0 301 -93 575
-282 828 -14 19 -68 76 -120 128 -131 131 -315 249 -462 297 -32 11 -58 21
-58 24 0 3 14 11 30 18 28 13 32 12 65 -17 20 -17 38 -31 40 -31 11 0 45 82
45 109 0 33 22 46 63 36 39 -10 67 10 67 48 0 32 -7 45 -67 131 -29 41 -30 46
-13 46 25 0 25 2 0 50 -25 48 -55 70 -97 70 -17 0 -54 5 -82 11 -93 20 -181
-29 -234 -131 -17 -31 -20 -33 -29 -16 -23 40 20 183 70 239 32 34 56 34 100
1 40 -31 47 -25 58 43 6 43 3 84 -10 114 -6 13 3 21 37 34 25 9 56 29 70 44
27 28 50 98 45 136 -5 42 17 31 26 -12 5 -24 12 -43 17 -43 14 0 69 84 75 116
8 45 -39 149 -78 171 -41 25 -35 37 18 29 37 -5 45 -3 41 8 -3 8 -9 30 -12 49
-4 19 -20 48 -37 64 -28 26 -34 28 -104 25 -92 -3 -143 -26 -180 -82 -43 -64
-75 -63 -156 4 -45 37 -51 60 -12 46 14 -6 59 -10 101 -10 l76 0 -61 64 c-61
63 -82 106 -44 91 73 -31 123 -21 210 43 63 46 63 47 35 53 -15 4 -54 10 -86
14 -51 6 -60 10 -81 42 -14 19 -22 42 -19 49 7 19 23 18 23 -1 0 -26 14 -16
43 32 29 47 57 137 57 183 0 62 7 69 65 63 106 -11 178 54 206 188 6 30 20 63
30 75 10 11 19 31 19 45 0 24 -23 67 -44 81 -6 4 -9 23 -8 43 3 28 -2 41 -25
64 -25 24 -39 29 -106 35 -69 7 -82 5 -130 -17 -72 -33 -110 -84 -147 -197
-35 -107 -30 -99 -156 -246 l-98 -114 -46 0 -46 0 4 93 4 92 -23 -21 c-13 -11
-37 -33 -54 -48 -16 -15 -38 -32 -48 -37 -16 -9 -17 -6 -11 33 4 24 15 49 26
56 20 14 113 192 101 192 -5 0 -17 -7 -27 -15 -33 -25 -37 -17 -10 22 49 73
15 128 -86 140 -44 5 -61 12 -88 39 -39 40 -84 54 -180 54 -118 0 -130 16 -92
125 11 32 20 60 20 62 0 9 -19 -2 -67 -36z m-20 -91 c-9 -34 7 -70 40 -90 25
-16 50 -20 119 -20 103 0 132 -9 152 -49 14 -26 23 -30 73 -37 109 -13 123
-28 78 -82 -14 -17 -23 -36 -20 -44 3 -8 -1 -29 -8 -48 -11 -25 -16 -30 -23
-18 -5 8 -40 27 -79 42 -38 15 -76 33 -83 39 -22 18 -42 -15 -53 -88 -5 -37
-12 -78 -15 -91 -8 -30 25 -51 93 -60 41 -5 58 -3 78 10 24 16 25 15 25 -2 0
-43 -24 -57 -102 -58 -74 0 -118 -16 -118 -42 0 -10 6 -11 23 -5 12 4 42 7 67
6 198 -9 184 -10 223 20 40 30 45 25 23 -28 -20 -47 -59 -69 -133 -75 -87 -7
-85 -24 3 -28 53 -2 85 2 125 18 86 32 169 23 208 -23 10 -13 5 -16 -36 -19
-26 -3 -88 -15 -136 -28 -87 -23 -89 -23 -159 -6 -47 11 -75 13 -81 7 -19 -19
-10 -68 20 -117 27 -45 57 -114 48 -114 -2 0 -35 18 -74 41 -83 48 -111 79
-111 125 0 42 -14 44 -30 3 -12 -29 -10 -37 23 -105 20 -41 40 -92 43 -114 l7
-41 -59 34 c-63 37 -104 85 -104 123 0 13 -4 26 -10 29 -19 12 -22 -49 -6
-131 10 -51 14 -98 10 -117 -4 -19 -9 -26 -12 -17 -2 8 -22 43 -43 76 -58 91
-65 131 -34 207 14 32 -15 17 -45 -25 -46 -63 -42 -117 13 -198 35 -53 42 -71
42 -113 0 -43 -4 -52 -33 -76 -29 -25 -102 -56 -102 -45 0 3 7 16 16 29 18 27
12 90 -10 120 -10 14 -17 15 -34 6 -40 -21 -96 -14 -126 18 l-27 29 34 6 c22
4 41 16 52 32 20 31 17 81 -5 75 -41 -11 -80 -12 -99 -2 -26 14 -27 31 -3 31
10 0 29 10 41 22 22 20 23 26 17 102 -5 63 -3 88 9 110 20 38 19 49 -4 36 -20
-10 -37 -7 -78 13 -31 14 -29 27 5 27 41 0 59 26 64 93 3 38 12 68 26 87 28
37 28 37 -6 32 -36 -5 -78 30 -88 72 -6 26 -5 28 12 21 57 -23 118 -3 142 49
6 13 25 40 42 60 l32 36 -25 21 c-16 12 -29 35 -33 57 -8 45 -31 92 -45 92 -6
0 -8 4 -5 8 3 5 32 5 65 1 58 -6 121 -38 121 -61 0 -5 5 -8 12 -6 8 3 11 21
10 49 -2 34 3 54 25 87 29 45 44 54 36 22z m1242 -151 c5 -6 4 -9 -4 -9 -7 0
-26 -11 -43 -25 -16 -14 -40 -25 -52 -25 -14 0 -28 -10 -36 -25 -18 -33 -8
-41 24 -20 37 24 118 16 151 -15 32 -30 32 -38 0 -33 -17 4 -30 -2 -47 -21
-13 -15 -36 -29 -53 -31 -83 -14 -95 -21 -95 -62 0 -24 6 -26 53 -23 16 1 37
-6 48 -16 17 -15 24 -16 39 -6 31 19 32 15 8 -32 -33 -64 -65 -80 -142 -71
-83 8 -93 -3 -111 -130 -16 -114 -26 -131 -51 -84 l-17 34 -14 -55 c-7 -30
-15 -55 -17 -57 -1 -2 -14 14 -27 35 -15 23 -37 41 -59 48 -23 8 -36 19 -38
33 -2 11 -16 33 -32 47 l-28 27 28 31 c168 187 178 202 210 303 52 163 103
208 225 197 39 -3 74 -10 80 -15z m-1869 -55 c15 -41 16 -55 6 -115 -13 -77
-15 -131 -6 -178 9 -44 21 -38 26 14 7 62 49 122 101 146 60 27 72 24 46 -10
-12 -17 -25 -47 -28 -68 -7 -39 -6 -49 24 -218 27 -151 10 -333 -44 -468 -15
-38 -15 -37 18 -37 39 0 69 -27 77 -69 l7 -34 -35 7 c-98 18 -170 -80 -169
-233 0 -84 26 -153 77 -202 34 -33 38 -34 122 -36 l87 -2 12 -43 c26 -99 18
-108 -92 -107 -129 1 -212 67 -261 206 -21 63 -51 80 -108 65 -26 -8 -36 -7
-36 1 1 31 53 67 97 67 35 0 40 10 24 53 -23 59 -75 75 -109 32 -11 -14 -23
-25 -26 -25 -3 0 -6 25 -6 55 0 46 5 60 28 87 36 39 80 42 117 8 l24 -23 11
29 c70 182 87 437 34 496 -47 51 -134 38 -176 -26 -13 -20 -26 -36 -30 -36
-17 0 -51 76 -52 115 -1 50 22 87 69 113 17 9 32 18 34 19 2 2 -3 11 -11 20
-8 10 -23 39 -33 65 -29 78 -8 145 77 251 26 33 53 75 60 94 7 18 15 33 19 33
4 0 15 -21 25 -46z m1379 -623 c54 -25 74 -44 126 -121 39 -57 50 -66 89 -76
l45 -12 -37 -16 c-21 -9 -42 -16 -48 -16 -29 0 -74 36 -105 85 -62 96 -102
125 -193 140 -51 8 -50 13 9 24 64 13 70 12 114 -8z m-96 -66 c32 -10 62 -30
85 -55 34 -38 38 -51 51 -152 3 -26 16 -59 27 -73 l21 -27 -34 7 c-56 12 -90
55 -119 152 -16 54 -47 82 -96 90 l-39 6 31 -34 c39 -42 49 -62 80 -152 l24
-70 -23 20 c-12 11 -55 42 -95 68 -76 49 -126 103 -160 171 -11 22 -28 46 -36
53 -9 8 -16 16 -16 20 0 12 249 -7 299 -24z m-335 -181 c30 -19 57 -45 60 -57
9 -34 24 -8 28 47 l3 50 27 -42 c17 -25 56 -59 100 -88 124 -79 150 -97 213
-148 114 -92 171 -97 228 -21 42 56 71 73 142 80 46 4 62 2 76 -11 25 -22 24
-31 -3 -30 -13 1 -26 -8 -33 -20 -18 -37 -39 -56 -75 -73 l-35 -16 55 -3 c30
-1 65 -4 77 -7 27 -6 73 -90 73 -132 l0 -28 -18 22 c-13 17 -27 23 -57 23 -22
0 -64 2 -92 6 -61 7 -70 -6 -18 -25 64 -23 78 -73 43 -160 l-11 -26 -6 24 c-7
26 -22 37 -64 46 -17 3 -32 16 -39 33 -7 15 -13 28 -14 30 -1 2 -14 -4 -28
-13 -41 -27 -97 -15 -162 36 -62 48 -46 48 -203 -10 -71 -27 -82 -29 -76 -14
5 10 10 35 13 56 5 43 -7 47 -45 17 -47 -37 -60 -28 -56 38 5 79 -6 92 -45 53
-17 -17 -39 -31 -49 -31 -15 0 -18 7 -15 45 5 53 -13 87 -59 111 -36 18 -49
12 -27 -13 9 -10 21 -35 28 -56 10 -32 9 -46 -4 -87 -9 -27 -16 -52 -16 -56 0
-11 88 4 121 22 30 15 31 15 24 -8 -27 -86 -51 -111 -163 -167 -73 -37 -102
-63 -102 -92 0 -12 16 -48 36 -81 56 -91 55 -113 -10 -248 -31 -63 -56 -121
-56 -130 0 -8 6 -27 14 -42 17 -32 14 -37 -18 -31 -34 7 -66 39 -73 74 -3 16
-9 29 -12 29 -15 0 -51 -89 -51 -124 l0 -37 -31 18 c-17 10 -44 37 -61 61 -37
53 -73 57 -111 12 -61 -72 -95 -239 -63 -313 l16 -38 54 6 c52 7 57 6 86 -23
36 -37 39 -73 10 -151 -24 -67 -40 -86 -40 -48 0 16 -10 37 -24 50 -13 12 -31
37 -40 55 -20 40 -37 42 -30 3 5 -24 -2 -36 -49 -86 -34 -35 -54 -49 -50 -37
3 12 -3 28 -15 40 -11 11 -23 34 -27 50 -8 38 -35 65 -35 36 0 -11 -7 -32 -15
-48 -8 -15 -15 -36 -15 -46 0 -10 -7 -23 -15 -30 -13 -11 -15 -8 -15 13 0 16
-7 28 -18 31 -33 11 -62 46 -62 75 0 16 14 62 32 102 22 54 31 91 32 134 1 59
0 60 -27 63 -16 2 -34 -1 -41 -8 -10 -8 -15 -7 -19 4 -14 35 19 91 63 108 20
7 22 11 10 18 -24 16 -56 11 -84 -11 l-26 -20 0 36 c0 40 32 95 55 95 23 0 26
16 9 50 -19 38 -14 105 11 129 15 15 17 15 27 -2 5 -11 28 -27 50 -37 39 -17
42 -17 88 2 63 26 126 86 151 144 19 43 21 58 14 169 -6 110 -5 127 13 166 26
58 41 73 152 156 145 107 182 157 198 269 l7 47 60 -56 c33 -32 61 -57 62 -57
2 0 10 17 19 38 10 24 14 56 12 95 -3 31 -3 57 -1 57 2 0 28 -16 57 -36z
m-648 -189 c16 -8 53 -15 82 -15 46 0 52 -2 52 -21 0 -11 -25 -47 -57 -81
l-58 -61 65 7 65 7 -44 -43 c-46 -46 -74 -94 -85 -145 -8 -33 -14 -37 -78 -49
-28 -4 -49 -1 -81 15 -62 30 -89 87 -89 186 1 76 15 119 55 163 26 28 42 28
83 -3 18 -14 35 -25 38 -25 3 0 9 18 12 40 4 22 8 40 9 40 2 0 16 -7 31 -15z
m864 -429 c159 -47 233 -55 284 -31 21 10 42 29 47 43 8 22 12 23 23 11 23
-24 36 -77 26 -104 -9 -22 -6 -27 29 -45 40 -20 61 -58 53 -93 -3 -13 -9 -16
-20 -11 -41 17 -78 15 -105 -6 -35 -28 -79 -93 -100 -150 -31 -84 -16 -197 28
-214 28 -10 74 22 100 72 40 77 63 87 179 85 55 -2 104 -7 110 -13 7 -7 5 -10
-5 -10 -9 0 -24 -9 -34 -20 -10 -11 -25 -20 -34 -20 -21 0 -81 -37 -81 -49 0
-6 20 -3 44 6 60 22 113 7 140 -39 11 -18 30 -46 43 -61 28 -35 30 -52 4 -38
-13 7 -29 7 -50 0 -27 -9 -35 -8 -51 6 -21 19 -110 34 -110 18 0 -5 13 -14 30
-20 16 -6 38 -26 49 -44 22 -36 28 -79 11 -79 -5 0 -10 3 -10 8 0 4 -9 13 -21
20 -18 12 -29 10 -75 -8 -62 -26 -88 -24 -194 15 l-75 27 -195 -7 c-107 -4
-213 -11 -235 -15 -22 -5 -42 -7 -44 -4 -9 9 54 63 119 102 108 65 130 121 78
195 l-19 27 30 0 c39 0 61 9 61 26 0 8 -10 14 -26 14 -27 0 -90 26 -100 41 -3
5 7 14 23 20 32 12 63 37 63 52 0 12 -144 -1 -208 -18 -26 -7 -53 -14 -61 -16
-11 -3 -15 10 -18 56 -2 33 -13 86 -24 117 -12 32 -19 64 -16 71 3 8 34 31 69
50 35 20 74 46 88 57 14 11 32 18 40 16 8 -2 71 -20 140 -40z m-238 -428 c22
-24 51 -58 66 -77 l26 -33 -29 -25 c-17 -13 -55 -43 -85 -66 -45 -35 -58 -53
-73 -98 -14 -41 -16 -63 -9 -90 l9 -37 -66 -23 c-36 -12 -99 -40 -139 -61 -39
-21 -73 -38 -75 -38 -1 0 -10 15 -20 33 -26 48 -75 77 -129 77 -43 0 -46 2
-50 31 -7 47 8 124 37 186 l26 57 42 -47 c41 -45 161 -122 176 -112 5 2 4 26
0 52 -12 74 -12 74 19 57 50 -26 86 -27 131 -5 22 12 41 24 41 27 0 2 -9 15
-20 27 -34 36 -35 64 -5 126 24 51 41 68 84 80 2 1 21 -18 43 -41z m488 -918
c222 -54 421 -207 520 -400 183 -358 73 -794 -256 -1018 -53 -36 -172 -89
-239 -108 -92 -25 -256 -30 -353 -10 -340 69 -595 343 -630 677 -26 250 51
472 223 645 197 196 472 276 735 214z"/>
<path d="M2548 5729 c-15 -11 -43 -42 -62 -69 -19 -27 -49 -56 -66 -65 -42
-22 -38 -35 11 -35 l41 0 -27 -36 c-20 -26 -29 -54 -35 -101 -5 -36 -13 -70
-19 -76 -31 -31 -1 -35 40 -6 36 25 36 15 3 -64 -31 -74 -29 -123 10 -211 27
-62 40 -65 50 -14 5 24 30 55 88 112 l81 79 15 -29 c18 -35 42 -64 54 -64 5 0
12 8 15 18 4 9 22 39 41 65 37 51 54 51 66 2 4 -14 11 -25 16 -25 17 0 -1 94
-22 115 -20 20 -20 20 -36 -5 -10 -14 -29 -38 -44 -55 l-27 -30 -10 28 c-6 16
-11 44 -11 63 0 40 -7 42 -35 10 -18 -20 -158 -116 -170 -116 -22 0 15 131 64
228 12 23 19 42 16 42 -3 0 -23 -11 -43 -25 -20 -14 -42 -25 -49 -25 -22 0 12
75 66 145 65 85 69 106 11 63 -16 -12 -32 -19 -36 -16 -7 8 23 67 49 96 20 21
20 22 1 22 -10 0 -31 -10 -46 -21z"/>
<path d="M1951 5701 c-30 -42 -51 -95 -51 -128 1 -40 33 -106 80 -161 22 -27
40 -51 40 -54 0 -3 -21 -8 -46 -11 -49 -5 -94 -38 -94 -69 0 -22 13 -23 30 -4
6 8 27 20 45 26 41 14 99 -7 131 -47 37 -47 33 -10 -7 67 -111 215 -121 247
-108 346 4 32 6 60 5 62 -2 2 -13 -10 -25 -27z"/>
<path d="M2960 4806 c0 -3 13 -25 30 -48 19 -27 33 -63 38 -98 l8 -55 17 33
c10 18 15 37 12 42 -3 6 -2 10 4 10 20 0 61 -75 67 -124 l7 -49 18 24 c10 13
19 30 19 37 0 40 60 -37 60 -78 0 -27 21 -22 35 9 9 22 14 23 75 17 36 -3 83
-8 105 -12 59 -10 33 10 -40 31 -81 23 -159 67 -293 169 -63 47 -118 86 -122
86 -5 0 -15 3 -24 6 -9 3 -16 4 -16 0z"/>
<path d="M2744 4692 c-15 -27 -41 -50 -174 -154 -32 -25 -65 -62 -78 -88 -22
-42 -23 -52 -16 -171 l6 -127 -32 -61 c-19 -34 -47 -73 -63 -87 -41 -34 -26
-43 26 -14 108 59 139 123 142 290 2 134 8 151 91 237 48 50 134 176 134 196
0 17 -20 5 -36 -21z"/>
<path d="M2225 3900 c-11 -5 -42 -9 -70 -10 l-50 -1 33 -28 c17 -15 32 -30 32
-34 0 -3 -16 -9 -35 -13 -44 -8 -44 -19 -2 -39 18 -8 38 -24 44 -34 11 -17 8
-24 -22 -50 -42 -36 -43 -41 -10 -41 24 0 25 -3 25 -61 0 -33 -5 -80 -11 -104
-23 -89 -2 -76 31 20 31 92 34 111 35 228 l2 128 29 24 c25 21 26 24 9 24 -11
0 -29 -4 -40 -9z"/>
<path d="M2956 4162 c-2 -4 -1 -23 3 -42 l7 -35 50 5 c27 2 94 5 149 5 l100 0
3 -26 c2 -21 -6 -34 -35 -58 l-38 -31 37 0 c20 0 49 5 63 10 24 9 26 8 20 -12
-9 -30 -41 -83 -60 -98 -11 -9 -13 -23 -9 -51 5 -30 1 -47 -19 -82 -14 -24
-33 -49 -41 -57 -9 -7 -16 -20 -16 -28 0 -27 103 83 133 141 36 72 60 169 61
249 1 99 -2 101 -176 105 -79 1 -162 5 -185 7 -23 3 -44 2 -47 -2z"/>
<path d="M3094 2970 c-387 -101 -636 -474 -573 -860 61 -377 378 -651 754
-651 117 0 172 10 275 47 74 27 89 34 165 83 144 94 260 254 311 431 25 89 26
307 1 400 -71 269 -293 486 -560 550 -108 26 -274 26 -373 0z m301 -1 c50 -6
92 -15 93 -20 2 -5 13 -9 24 -9 28 0 165 -67 213 -104 131 -102 221 -224 270
-371 20 -56 23 -72 34 -175 33 -297 -133 -596 -404 -733 -386 -194 -842 -36
-1024 355 -42 91 -71 217 -71 311 0 80 24 225 41 242 5 5 9 15 9 23 0 20 61
142 71 142 5 0 8 4 7 9 -5 15 116 150 129 146 7 -2 12 0 10 4 -4 15 91 82 166
116 148 68 261 85 432 64z"/>
<path d="M3205 2840 c-127 -18 -247 -75 -342 -163 -76 -71 -123 -141 -165
-244 -29 -73 -32 -86 -32 -203 -1 -107 3 -136 23 -199 83 -252 323 -425 591
-424 181 0 325 58 446 181 143 144 208 354 170 547 -46 235 -231 435 -454 490
-79 19 -166 25 -237 15z m63 -180 c142 -62 129 -252 -22 -310 l-30 -11 29 -15
c35 -18 44 -30 96 -124 23 -41 53 -90 67 -109 26 -35 111 -81 150 -81 37 0 25
-18 -17 -25 -45 -8 -138 8 -180 30 -49 25 -95 80 -142 167 -50 93 -97 148
-128 148 -20 0 -21 -5 -21 -98 0 -92 2 -100 25 -122 13 -12 22 -27 19 -31 -3
-5 -50 -9 -104 -9 -54 0 -101 4 -104 9 -3 4 6 19 19 31 l25 23 0 244 c0 230
-1 244 -20 263 -11 11 -20 25 -20 30 0 6 59 10 156 10 134 0 162 -3 202 -20z
m362 -291 l50 -11 -6 -51 c-9 -71 -19 -79 -52 -41 -37 44 -61 54 -127 54 -59
0 -107 -18 -125 -47 -9 -16 -12 -15 -35 12 -14 17 -25 33 -25 37 0 9 54 38 90
49 38 11 173 10 230 -2z m-351 -333 c17 -17 31 -37 31 -47 0 -24 25 -80 50
-112 31 -39 71 -57 130 -57 66 0 106 18 156 69 36 36 43 39 54 26 10 -12 8
-21 -14 -50 -57 -75 -135 -115 -221 -115 -89 0 -140 18 -195 67 -65 59 -90
124 -90 237 0 45 3 86 6 89 4 4 19 -13 34 -36 15 -23 41 -55 59 -71z"/>
<path d="M3077 2623 c-4 -3 -7 -57 -7 -120 l0 -113 43 0 c109 0 176 124 106
199 -28 30 -124 53 -142 34z"/>
<path d="M4383 3458 c-33 -16 -28 -28 10 -28 44 0 84 -39 69 -67 -6 -10 -20
-27 -31 -37 -20 -18 -22 -19 -41 -1 -13 11 -18 25 -14 37 8 25 -8 23 -34 -5
-27 -28 -28 -40 -4 -33 12 4 26 -1 37 -14 18 -20 18 -21 -15 -55 l-34 -35 -23
22 c-18 17 -22 29 -18 50 8 34 -4 36 -27 4 -16 -22 -15 -24 46 -84 62 -61 97
-81 77 -44 -8 15 3 31 61 91 60 61 75 71 96 66 13 -3 22 -2 20 2 -4 10 -143
143 -149 142 -2 0 -14 -5 -26 -11z"/>
<path d="M4570 3275 c0 -19 -7 -53 -16 -76 -15 -35 -20 -40 -40 -35 -31 8 -80
-17 -87 -45 -8 -29 6 -62 50 -117 55 -70 55 -70 51 -39 -3 24 6 34 81 88 58
41 87 57 95 49 5 -5 14 -10 18 -10 10 0 10 27 0 32 -4 2 -18 18 -31 36 -24 35
-46 43 -37 14 5 -14 -4 -26 -31 -45 -21 -15 -39 -23 -41 -17 -2 5 7 37 19 70
21 58 21 63 6 96 -21 44 -37 44 -37 -1z"/>
<path d="M1772 2969 c-24 -52 -23 -71 2 -50 11 9 23 8 55 -5 23 -9 41 -20 41
-24 0 -11 -38 -20 -83 -20 -29 0 -46 -7 -68 -29 -40 -40 -40 -83 0 -47 9 8 41
17 71 21 55 6 55 6 70 -27 20 -43 74 -52 107 -16 34 36 83 172 51 140 -18 -18
-32 -15 -123 30 -60 29 -85 47 -85 60 0 32 -14 19 -38 -33z"/>
<path d="M4643 2994 c-51 -25 -76 -75 -71 -136 5 -45 11 -57 46 -90 36 -33 47
-38 89 -38 89 0 155 72 139 152 -20 102 -116 155 -203 112z m143 -42 c6 -4 16
-17 23 -30 16 -31 -11 -88 -58 -119 -46 -31 -114 -32 -135 -1 -22 31 -20 56 8
93 39 51 125 82 162 57z"/>
<path d="M4846 2733 c-12 -13 -5 -23 15 -23 21 0 55 -61 46 -84 -3 -6 -47 -24
-98 -39 -86 -25 -94 -25 -111 -10 -26 24 -29 14 -10 -42 16 -47 37 -71 37 -43
0 8 42 25 99 42 95 27 100 28 113 11 7 -10 15 -16 18 -13 6 5 -40 187 -50 196
-8 8 -52 11 -59 5z"/>
<path d="M1692 2700 c-32 -20 -71 -86 -72 -122 0 -34 32 -97 58 -114 100 -66
222 -2 222 116 0 111 -114 177 -208 120z m122 -54 c37 -15 66 -50 66 -79 0
-10 -12 -29 -26 -44 -23 -23 -31 -25 -85 -21 -76 6 -113 31 -117 81 -3 32 1
39 30 57 39 23 85 26 132 6z"/>
<path d="M4954 2472 c-7 -10 -61 -40 -120 -67 -60 -27 -111 -51 -113 -52 -15
-11 38 -36 133 -66 60 -19 115 -42 121 -51 20 -27 26 -18 21 31 -7 55 -11 61
-25 35 -20 -38 -81 -4 -81 45 0 15 10 28 31 38 28 15 32 15 43 -1 18 -24 23
-8 18 54 -4 55 -10 63 -28 34z"/>
<path d="M1836 2405 c-3 -8 -30 -26 -60 -40 -75 -34 -156 -33 -156 2 0 8 -6
13 -12 11 -8 -3 -14 -28 -16 -69 -2 -63 -2 -64 15 -41 16 19 24 21 68 16 38
-4 60 -14 95 -43 25 -21 46 -48 48 -60 6 -39 27 -16 30 32 2 46 -10 63 -22 31
-5 -12 -12 -10 -41 13 -19 15 -35 31 -35 34 0 3 16 13 36 22 28 14 39 15 50 6
19 -16 21 -13 26 49 4 37 2 52 -7 52 -7 0 -15 -7 -19 -15z"/>
<path d="M1580 2156 c0 -48 13 -67 28 -40 7 12 17 15 41 9 28 -6 31 -10 31
-44 0 -31 -5 -40 -27 -50 -18 -8 -29 -9 -37 -1 -18 18 -27 11 -22 -17 2 -16 5
-44 5 -63 l1 -35 23 27 c13 17 62 44 127 71 57 25 106 49 107 54 4 12 -46 34
-155 69 -50 15 -88 33 -95 45 -19 30 -27 22 -27 -25z"/>
<path d="M4877 2184 c-11 -18 -11 -118 0 -121 6 -2 13 6 16 17 4 17 12 21 39
18 27 -2 34 -8 36 -29 10 -83 -135 -121 -203 -53 -40 39 -26 118 22 130 13 4
23 11 23 18 0 15 -76 8 -78 -7 -15 -104 -14 -137 8 -172 30 -49 71 -68 132
-63 80 8 121 63 120 160 -1 32 -4 63 -7 68 -3 6 -22 10 -42 10 -22 0 -41 6
-48 17 -7 9 -14 12 -18 7z"/>
<path d="M1856 1913 c-5 -14 -25 -23 -89 -36 -102 -21 -123 -21 -131 0 -5 11
-10 13 -17 6 -6 -6 -6 -19 -1 -34 5 -13 15 -55 22 -92 13 -72 21 -81 67 -75
l28 3 -32 17 c-32 18 -54 71 -36 89 5 5 51 18 102 29 89 20 94 20 106 3 21
-28 27 -10 14 43 -14 58 -25 73 -33 47z"/>
<path d="M4707 1923 c-3 -5 -8 -28 -12 -53 -7 -45 -7 -45 13 -27 19 17 23 17
83 2 35 -9 65 -18 67 -20 2 -1 -44 -26 -101 -56 -94 -47 -106 -57 -116 -88
-13 -42 -8 -50 18 -27 19 17 23 17 108 -11 64 -21 91 -35 98 -51 12 -27 25
-28 25 -2 0 10 5 31 12 45 14 31 4 43 -20 22 -16 -15 -24 -14 -95 7 l-78 22
126 62 c69 34 124 66 121 71 -4 5 -21 12 -39 16 -17 4 -65 16 -106 28 -56 17
-75 27 -82 45 -9 23 -15 27 -22 15z"/>
<path d="M1861 1543 c-50 -26 -74 -64 -74 -116 0 -80 62 -164 111 -151 29 8
28 24 -2 24 -15 0 -35 12 -51 32 -22 26 -26 39 -21 66 9 58 74 112 134 112 59
0 108 -90 70 -128 -18 -18 -1 -27 27 -12 20 11 23 18 18 39 -27 115 -128 178
-212 134z"/>
<path d="M4576 1518 c4 -13 28 -45 54 -73 81 -85 100 -112 100 -140 0 -36 20
-20 39 30 13 37 7 61 -9 35 -8 -13 -14 -11 -35 10 -23 23 -24 28 -13 58 11 29
16 32 47 30 23 -2 35 -8 39 -20 7 -27 18 -22 32 15 8 17 20 39 27 49 18 20 -1
35 -23 17 -11 -9 -36 -9 -115 0 -145 16 -152 16 -143 -11z"/>
<path d="M4482 1374 c-16 -7 -102 -119 -102 -133 0 -6 5 -11 10 -11 6 0 10 5
10 11 0 17 23 5 105 -57 65 -49 74 -59 69 -80 -10 -41 9 -27 59 43 54 75 61
119 26 154 -16 16 -29 20 -53 16 -27 -4 -33 -1 -46 27 -15 30 -46 43 -78 30z"/>
<path d="M2084 1352 c6 -19 -23 -51 -111 -121 -33 -26 -45 -31 -56 -23 -31 26
-24 -3 11 -44 41 -50 52 -54 53 -21 0 12 13 33 31 46 l31 25 38 -43 c22 -23
39 -46 39 -50 0 -14 -61 -52 -80 -49 -27 4 -23 -11 15 -54 35 -42 50 -48 42
-19 -3 13 7 30 32 53 66 63 118 98 135 92 30 -12 17 21 -25 61 -40 38 -41 39
-35 13 5 -22 0 -31 -26 -52 l-33 -26 -37 42 c-21 24 -37 48 -38 53 0 18 63 55
75 45 7 -6 15 -7 18 -4 7 7 -63 94 -76 94 -4 0 -6 -8 -3 -18z"/>
<path d="M4228 1104 c-28 -15 -58 -60 -58 -87 0 -8 9 -25 19 -38 16 -20 31
-25 92 -29 54 -4 75 -9 83 -22 20 -32 -5 -53 -58 -51 -52 1 -58 -7 -21 -31 23
-15 28 -15 55 -1 32 17 70 69 70 96 0 9 -9 28 -21 43 -18 23 -27 26 -84 26
-78 0 -95 6 -95 34 0 29 44 56 62 38 16 -16 28 -15 28 3 0 8 -9 19 -19 25 -24
12 -20 13 -53 -6z"/>
<path d="M2335 1044 c-28 -15 -57 -32 -65 -39 -34 -29 -103 -56 -126 -51 -34
9 -30 -9 6 -31 17 -9 30 -21 30 -25 0 -4 7 -8 15 -8 18 0 19 12 4 27 -8 8 -4
15 12 27 31 21 48 20 75 -5 19 -18 21 -25 12 -50 -6 -18 -17 -29 -29 -29 -29
0 -23 -15 16 -41 19 -13 35 -27 35 -31 0 -5 6 -8 13 -8 9 0 12 11 9 33 -2 19
11 74 32 136 33 96 36 121 18 121 -4 0 -30 -12 -57 -26z"/>
<path d="M2507 974 c-3 -4 -1 -14 5 -24 19 -29 -88 -195 -118 -183 -8 3 -14
-1 -14 -11 0 -9 5 -16 12 -16 6 0 43 -18 80 -41 70 -41 93 -44 119 -13 17 21
3 29 -26 16 -21 -10 -32 -9 -55 3 -16 8 -31 19 -35 24 -3 5 17 48 45 95 44 74
55 86 77 86 16 0 23 4 18 8 -22 20 -103 61 -108 56z"/>
<path d="M4025 956 c-44 -19 -111 -66 -105 -74 3 -4 11 -7 19 -7 7 0 36 -37
64 -83 43 -71 49 -86 39 -102 -19 -30 3 -33 44 -5 20 14 41 25 45 25 5 0 9 5
9 10 0 6 -9 10 -19 10 -20 0 -68 66 -57 77 4 4 31 -5 62 -20 63 -31 75 -32
114 -12 40 21 38 35 -6 35 -20 0 -54 10 -75 22 -36 20 -38 24 -33 58 5 32 2
40 -21 58 -32 25 -39 26 -80 8z"/>
<path d="M3855 872 c-6 -5 -43 -21 -82 -36 -71 -27 -93 -46 -54 -46 15 0 27
-22 56 -97 36 -91 37 -97 20 -110 -40 -29 -1 -23 89 14 88 35 96 40 96 65 0
39 -19 45 -31 9 -8 -21 -21 -33 -45 -41 -41 -14 -37 -16 -57 33 -16 37 -16 37
12 51 21 11 31 12 39 4 18 -18 23 -4 10 30 -13 33 -28 43 -28 19 0 -11 -39
-37 -54 -37 -4 0 -36 76 -36 84 0 2 14 9 30 16 26 11 33 10 49 -4 25 -22 33
-9 15 25 -16 32 -16 32 -29 21z"/>
<path d="M2704 852 c15 -18 15 -23 -9 -88 -44 -120 -47 -124 -66 -124 -50 0 6
-27 161 -76 9 -3 22 6 33 25 23 40 21 46 -9 26 -18 -12 -36 -15 -60 -11 -53
10 -53 13 -2 159 15 42 26 57 39 57 34 0 20 15 -30 33 -64 23 -79 22 -57 -1z"/>
<path d="M2910 795 c0 -3 5 -14 12 -24 9 -16 8 -39 -6 -115 -15 -80 -21 -96
-36 -96 -11 0 -22 -4 -25 -10 -3 -5 -4 -10 -1 -10 2 0 40 -7 83 -15 106 -20
120 -19 139 10 21 31 11 44 -15 21 -13 -12 -32 -16 -58 -14 -31 2 -39 7 -41
27 -7 44 6 71 34 71 17 0 28 -7 31 -20 8 -31 20 -24 28 16 7 38 -1 57 -14 35
-5 -7 -19 -11 -32 -9 -22 3 -24 8 -22 47 1 24 4 45 6 47 2 2 18 1 36 -2 22 -5
33 -14 37 -30 8 -32 24 -31 24 1 0 14 0 28 0 32 1 5 -36 15 -82 25 -97 19 -98
20 -98 13z"/>
<path d="M3535 776 c-52 -23 -85 -71 -85 -124 0 -116 101 -172 219 -122 40 18
50 27 45 39 -15 36 -16 63 -3 72 26 16 0 21 -55 9 -58 -12 -73 -26 -33 -32 18
-2 22 -9 22 -38 0 -32 -3 -35 -32 -38 -48 -5 -93 40 -100 100 -8 65 2 95 37
113 42 22 73 19 100 -10 32 -34 40 -31 27 10 -10 34 -12 35 -61 35 -28 -1 -65
-7 -81 -14z"/>
<path d="M3130 749 c0 -6 10 -13 21 -16 21 -6 21 -10 15 -102 -6 -79 -11 -99
-27 -111 -26 -21 -15 -30 38 -30 46 0 53 6 28 24 -13 9 -15 29 -13 95 l3 84
85 -107 c46 -58 89 -105 95 -103 10 4 12 29 14 152 1 51 5 69 21 85 11 11 20
22 20 25 0 3 -22 5 -50 5 -51 0 -67 -13 -29 -25 18 -6 20 -13 17 -76 -2 -38
-5 -69 -8 -69 -3 1 -39 41 -80 90 -70 84 -78 90 -112 90 -21 0 -38 -5 -38 -11z"/>
</g>
</svg>
