<?xml version="1.0" standalone="no"?>
<!DOCTYPE svg PUBLIC "-//W3C//DTD SVG 20010904//EN"
 "http://www.w3.org/TR/2001/REC-SVG-20010904/DTD/svg10.dtd">
<svg version="1.0" xmlns="http://www.w3.org/2000/svg"
 width="300.000000pt" height="300.000000pt" viewBox="0 0 300.000000 300.000000"
 preserveAspectRatio="xMidYMid meet">
<metadata>
Created by potrace 1.15, written by Peter Selinger 2001-2017
</metadata>
<g transform="translate(0.000000,300.000000) scale(0.100000,-0.100000)"
fill="#000000" stroke="none">
<path d="M1243 2639 c-487 -89 -871 -402 -1012 -825 -16 -49 -37 -141 -47
-205 -16 -110 -16 -122 1 -230 31 -207 100 -374 213 -525 180 -237 433 -401
744 -483 101 -26 137 -32 258 -41 552 -40 1081 236 1312 685 60 117 93 226
113 367 14 104 14 124 0 228 -36 259 -138 462 -325 650 -208 210 -450 331
-765 385 -116 19 -367 16 -492 -6z m217 -303 c38 -10 61 -11 79 -4 44 17 201
13 246 -6 102 -43 165 -116 185 -213 27 -130 -47 -291 -165 -358 -15 -9 -16
-14 -6 -34 7 -13 32 -79 56 -148 48 -137 83 -199 121 -213 37 -14 68 4 60 36
-7 28 5 31 28 8 21 -20 20 -30 -5 -55 -18 -18 -30 -21 -75 -17 -109 9 -181 93
-214 249 -11 52 -22 104 -25 117 -5 20 -11 22 -62 22 -62 0 -93 18 -93 53 0
59 93 79 149 32 l30 -26 34 35 c61 60 82 118 82 221 0 101 -17 145 -77 202
-47 45 -96 63 -174 63 l-67 0 46 -40 c74 -65 95 -152 50 -202 -20 -22 -47 -23
-67 -2 -18 17 -22 74 -6 74 6 0 10 -7 10 -15 0 -26 39 -17 46 10 12 49 -32
112 -105 150 -28 14 -34 14 -61 0 -38 -19 -38 -27 1 -60 l32 -26 28 27 c33 32
44 28 29 -10 -5 -15 -10 -37 -10 -49 0 -12 -2 -206 -6 -432 -7 -410 -7 -410
15 -429 11 -11 21 -22 21 -26 0 -3 -38 -6 -85 -6 -88 1 -101 8 -65 39 19 16
20 29 20 451 0 503 -5 538 -67 446 -27 -39 -29 -72 -7 -91 14 -11 18 -11 29 4
18 25 25 21 25 -13 0 -20 -8 -35 -25 -46 -23 -15 -27 -15 -50 0 -35 23 -42 73
-18 127 19 42 83 109 104 109 6 0 7 5 3 11 -4 8 -32 10 -79 7 -153 -10 -245
-112 -245 -272 0 -84 23 -147 75 -204 l43 -47 27 25 c20 19 38 25 69 25 52 0
76 -18 76 -56 0 -43 -37 -63 -99 -55 l-50 6 -16 -77 c-34 -160 -70 -230 -144
-280 -80 -54 -214 -27 -174 35 16 27 31 24 35 -5 2 -23 8 -29 34 -31 42 -4 83
43 119 139 16 41 43 110 62 154 18 45 33 83 33 87 0 3 -18 17 -40 32 -85 56
-149 204 -136 310 4 28 16 70 27 93 28 57 110 130 168 147 60 19 153 20 221 2z
m940 -174 c0 -32 -3 -61 -6 -64 -3 -3 -19 1 -36 9 -23 12 -41 14 -75 7 -24 -5
-43 -12 -41 -15 6 -14 -36 -49 -53 -44 -28 9 -86 -78 -62 -94 12 -7 13 -41 1
-41 -13 0 -9 -37 7 -78 34 -80 104 -124 196 -121 32 1 59 4 59 6 0 2 -11 8
-25 13 -29 11 -31 22 -10 40 12 10 95 10 143 1 2 -1 0 -5 -3 -11 -3 -5 -16
-10 -28 -10 -16 0 -23 -6 -24 -20 -1 -11 4 -20 11 -20 16 0 51 -38 43 -46 -3
-4 -2 -14 3 -24 15 -28 -1 -31 -22 -5 -11 14 -24 25 -30 25 -5 0 2 -14 16 -31
26 -30 34 -73 17 -83 -5 -3 -11 7 -15 22 -3 15 -15 38 -26 52 -20 25 -20 24 1
-32 21 -56 20 -88 -2 -88 -6 0 -9 6 -6 13 2 6 0 23 -5 37 -5 14 -13 44 -17 68
-8 38 -6 45 15 61 23 18 23 19 4 36 -18 16 -18 16 -16 -9 3 -26 0 -28 -29 -28
-39 0 -48 5 -20 12 23 6 14 8 -39 9 -67 1 -68 0 -61 -21 4 -13 8 -35 8 -51 0
-25 1 -26 17 -12 9 8 22 15 28 15 16 0 15 17 0 23 -7 2 6 4 29 4 31 0 40 -3
36 -13 -3 -8 -1 -14 5 -14 11 0 26 -66 26 -110 0 -15 11 -34 28 -48 15 -13 33
-42 40 -65 13 -47 34 -77 55 -77 20 0 16 23 -17 85 -16 31 -30 70 -30 86 0 60
75 93 104 47 16 -27 29 -118 17 -118 -20 0 -42 32 -35 52 4 14 3 18 -5 13 -7
-4 -19 -4 -28 -1 -14 6 -14 8 3 21 15 11 16 16 7 26 -10 10 -15 9 -28 -1 -20
-17 -20 -70 0 -70 12 0 14 -7 9 -27 -6 -27 -6 -27 10 -8 16 19 17 19 11 -15
-5 -26 -4 -31 4 -20 8 12 11 6 11 -25 0 -44 -7 -58 -32 -68 -17 -6 -40 14 -52
48 -8 19 -9 19 -18 -5 -11 -30 -2 -87 16 -97 8 -5 16 -24 20 -43 3 -19 3 -29
0 -22 -3 6 -10 12 -15 12 -6 0 -5 -9 2 -21 6 -12 7 -19 1 -16 -5 4 -20 -15
-33 -41 -13 -26 -32 -48 -41 -50 -13 -3 -16 1 -12 12 5 12 2 15 -10 10 -10 -4
-15 -13 -12 -21 3 -8 1 -11 -4 -8 -16 10 -11 30 13 57 13 14 29 39 37 57 12
30 11 35 -19 76 -35 48 -38 72 -16 115 14 27 14 31 -2 51 -10 11 -31 27 -46
36 -28 14 -28 15 -11 34 11 12 20 16 22 10 8 -23 28 -10 26 17 -3 83 -7 106
-11 82 -3 -14 -12 -33 -21 -44 -16 -18 -16 -18 6 -12 12 4 22 4 22 -1 0 -11
-20 -40 -20 -30 0 14 -50 -25 -50 -39 0 -8 -4 -14 -10 -14 -5 0 -10 -7 -10
-16 0 -8 -4 -13 -9 -9 -6 3 -14 -3 -20 -12 -6 -10 -11 -13 -11 -8 0 6 -8 -6
-17 -25 -12 -27 -17 -31 -20 -17 -4 16 -7 16 -25 -5 -12 -14 -19 -17 -17 -8 1
8 -1 23 -6 33 -6 14 2 29 32 60 68 71 73 82 57 128 -8 22 -16 48 -18 57 -6 35
-32 78 -73 125 -51 58 -110 205 -73 182 5 -3 7 0 4 9 -8 21 14 84 45 128 27
37 75 63 178 93 29 9 55 20 58 25 15 25 25 5 25 -48z m-1698 8 c10 0 47 -12
83 -27 75 -31 115 -78 135 -163 17 -70 -7 -144 -69 -212 -45 -51 -63 -86 -82
-163 -12 -48 -24 -62 -33 -40 -3 9 -2 13 4 10 6 -3 10 2 10 11 0 10 -3 15 -6
11 -3 -3 -26 5 -50 18 -24 13 -44 21 -44 19 0 -8 31 -68 43 -82 7 -9 13 -9 22
-2 10 8 18 4 32 -16 10 -14 37 -48 61 -74 43 -48 59 -86 25 -59 -16 13 -17 12
-5 -3 20 -25 10 -45 -11 -24 -15 16 -17 16 -17 1 0 -9 -4 -13 -10 -10 -5 3
-10 13 -10 21 0 20 -37 56 -44 41 -2 -7 -8 -2 -11 11 -4 12 -11 22 -16 22 -5
0 -9 7 -9 15 0 14 -38 41 -52 37 -5 -1 -8 7 -8 19 0 16 4 19 17 15 16 -6 16
-6 0 12 -9 10 -18 32 -19 48 -1 16 -4 -2 -7 -41 -6 -65 2 -92 18 -66 5 8 13 5
25 -8 17 -19 17 -20 -13 -35 -46 -24 -55 -49 -37 -102 l15 -45 -36 -51 -37
-50 23 -44 c13 -23 29 -45 37 -48 19 -7 18 -26 -1 -26 -8 0 -15 -4 -15 -10 0
-5 -6 -10 -14 -10 -16 0 -42 37 -52 74 -3 14 -10 26 -15 26 -5 0 -5 8 -2 18 6
15 5 16 -12 2 -17 -14 -18 -13 -12 3 4 10 7 27 7 38 0 10 7 19 15 19 18 0 30
60 18 96 l-9 27 -13 -31 c-25 -60 -65 -45 -75 28 -5 34 -4 41 5 30 8 -12 10
-9 6 13 -4 27 7 38 16 15 3 -7 6 -1 6 15 1 15 5 27 10 27 16 0 19 38 4 59 -18
27 -33 27 -33 1 0 -11 5 -20 10 -20 6 0 10 -5 10 -11 0 -7 -9 -9 -23 -5 -19 4
-23 1 -22 -21 0 -23 -28 -54 -39 -43 -7 8 13 111 25 126 17 21 56 17 80 -7 29
-29 21 -95 -16 -149 -29 -42 -28 -74 2 -68 11 2 24 22 34 53 9 28 30 65 46 83
23 24 32 45 36 85 8 80 22 103 63 103 19 0 28 -3 22 -7 -14 -9 -12 -11 22 -26
22 -9 25 -8 26 11 1 11 5 31 9 44 7 21 5 22 -56 24 l-64 1 71 6 c99 8 156 53
189 149 9 24 10 41 4 49 -6 6 -7 27 -4 46 5 27 2 39 -21 66 -14 18 -32 30 -38
28 -15 -6 -40 13 -49 35 -9 25 -88 34 -126 15 -16 -8 -32 -12 -35 -9 -8 7 -8
86 0 106 5 13 10 12 37 -5 18 -10 40 -19 49 -19z m-63 -403 c12 -10 13 -9 6 3
-8 13 -7 13 8 1 24 -19 21 -39 -5 -43 -13 -2 -24 -11 -26 -20 -3 -14 3 -18 25
-19 27 0 27 -1 5 -9 -12 -5 -28 -7 -36 -4 -18 7 -27 42 -12 48 7 3 7 5 0 5 -6
1 -19 -8 -29 -19 -11 -13 -14 -20 -6 -20 7 0 20 -7 28 -16 14 -13 14 -22 4
-62 -7 -26 -15 -62 -18 -80 -4 -26 -8 -30 -19 -21 -15 12 -11 46 13 92 8 16
12 31 9 34 -5 5 -37 -50 -47 -82 -5 -18 -7 -17 -14 8 -6 21 -2 35 20 63 24 31
25 35 7 25 -12 -6 -26 -19 -32 -29 -8 -13 -10 -9 -6 21 4 40 21 67 41 67 7 0
15 9 18 21 4 16 11 19 26 14 13 -4 21 -2 21 5 0 8 -14 9 -44 5 -45 -7 -78 1
-58 14 20 12 105 11 121 -2z m1727 -332 c-3 -9 0 -15 9 -15 25 0 17 -36 -10
-48 -27 -12 -32 -31 -14 -49 14 -14 7 -59 -9 -55 -6 1 -12 -2 -12 -8 0 -5 -3
-9 -7 -8 -5 1 -23 -6 -41 -15 -21 -12 -38 -15 -48 -9 -13 7 -11 13 13 39 15
16 35 32 43 35 12 4 13 7 2 20 -19 24 -2 114 21 110 9 -2 25 2 35 7 23 14 25
13 18 -4z m-1701 -5 c4 -6 16 -10 28 -8 18 3 22 -5 32 -47 9 -42 8 -52 -5 -63
-13 -12 -13 -14 0 -19 30 -13 73 -64 62 -75 -12 -12 -72 10 -72 27 0 5 -4 3
-10 -5 -8 -12 -10 -12 -16 3 -3 9 -10 14 -15 12 -5 -3 -11 6 -15 20 -5 19 -1
30 12 40 18 14 17 16 -15 43 -24 21 -32 34 -28 46 4 10 11 14 17 11 6 -3 7 1
4 9 -7 18 11 22 21 6z m266 -256 c10 -12 10 -22 1 -46 -9 -26 -8 -34 10 -59
12 -16 27 -28 32 -26 6 2 23 36 40 76 16 40 32 69 36 64 4 -4 17 -35 30 -68
13 -33 28 -66 33 -72 7 -9 4 -13 -10 -13 -11 0 -23 11 -30 29 -14 39 -52 39
-67 -1 -15 -41 -56 -38 -90 7 -31 40 -50 37 -44 -6 3 -22 0 -29 -11 -29 -13 0
-16 14 -16 80 l0 80 36 0 c21 0 42 -7 50 -16z m-21 -269 c26 -23 26 -75 0
-108 -11 -14 -20 -28 -20 -32 0 -14 76 -99 105 -117 l30 -18 -27 0 c-43 0 -74
19 -108 66 -48 68 -90 81 -90 30 0 -46 13 -85 29 -89 9 -2 -11 -4 -43 -5 -43
0 -55 3 -43 10 15 8 17 27 17 138 0 110 -2 130 -17 138 -11 7 11 9 65 8 63 -2
86 -7 102 -21z m339 7 c75 -37 99 -118 61 -197 -30 -61 -82 -89 -157 -83 -62
5 -100 29 -126 79 -37 70 -3 174 67 205 43 19 115 17 155 -4z m175 7 c-5 -8
52 -115 66 -124 12 -7 71 101 64 118 -4 11 5 14 35 14 l40 0 -24 -19 c-14 -11
-41 -48 -60 -82 -29 -51 -35 -73 -35 -120 0 -49 3 -58 23 -66 16 -6 6 -9 -43
-9 -49 0 -61 2 -47 10 31 18 23 101 -17 174 -19 33 -46 72 -60 86 l-25 26 44
0 c24 0 42 -4 39 -8z m346 -46 c72 -180 94 -225 114 -233 16 -7 11 -9 -24 -9
l-45 -1 -20 53 c-19 50 -21 52 -63 55 -41 3 -43 2 -62 -40 -18 -39 -18 -44 -3
-55 13 -10 8 -12 -30 -11 -44 0 -45 1 -27 17 10 9 42 76 71 149 29 72 56 132
59 132 4 0 17 -26 30 -57z m235 44 c-22 -12 -22 -229 1 -251 23 -24 70 -20 89
7 l16 22 -3 -30 -3 -30 -95 -2 c-52 -1 -89 1 -82 3 9 4 12 42 12 139 0 114 -2
135 -16 143 -12 6 1 9 40 8 35 0 50 -3 41 -9z m303 -22 l3 -30 -19 23 c-14 18
-26 23 -53 20 -28 -2 -35 -7 -37 -29 -2 -21 6 -35 44 -65 55 -45 78 -91 65
-128 -14 -34 -49 -56 -92 -56 -58 0 -69 8 -69 49 l0 36 20 -32 c15 -25 27 -33
49 -33 26 0 61 21 61 36 0 15 -27 51 -71 93 -57 55 -63 88 -24 127 21 21 33
25 73 22 44 -3 47 -5 50 -33z"/>
<path d="M1096 887 c-74 -74 -18 -237 80 -237 74 0 101 44 96 159 -3 51 -58
101 -111 101 -31 0 -48 -6 -65 -23z"/>
</g>
</svg>
