<?xml version="1.0" standalone="no"?>
<!DOCTYPE svg PUBLIC "-//W3C//DTD SVG 20010904//EN"
 "http://www.w3.org/TR/2001/REC-SVG-20010904/DTD/svg10.dtd">
<svg version="1.0" xmlns="http://www.w3.org/2000/svg"
 width="508.000000pt" height="508.000000pt" viewBox="0 0 508.000000 508.000000"
 preserveAspectRatio="xMidYMid meet">
<metadata>
Created by potrace 1.15, written by Peter Selinger 2001-2017
</metadata>
<g transform="translate(0.000000,508.000000) scale(0.100000,-0.100000)"
fill="#000000" stroke="none">
<path d="M170 4267 c0 -53 35 -179 69 -246 17 -34 29 -61 26 -61 -3 0 -23 12
-45 26 -22 15 -42 25 -45 23 -6 -6 58 -148 89 -197 15 -24 26 -46 24 -48 -2
-2 -27 12 -56 31 -28 19 -54 35 -57 35 -3 0 17 -44 44 -99 45 -89 138 -221
162 -229 5 -2 9 -8 9 -13 0 -5 -21 -6 -47 -2 l-47 6 50 -64 c28 -35 78 -86
111 -114 34 -27 62 -53 62 -56 1 -4 -22 -9 -49 -13 -27 -4 -50 -11 -50 -15 0
-16 126 -126 173 -151 52 -28 59 -40 23 -40 -34 0 -86 -11 -86 -19 1 -13 94
-74 158 -103 37 -17 69 -33 71 -34 2 -2 -4 -15 -13 -28 -16 -25 -15 -25 27
-50 23 -13 56 -30 72 -37 17 -7 32 -14 34 -15 1 -2 -12 -21 -30 -43 -32 -40
-32 -42 -13 -56 22 -16 100 -45 123 -45 36 -1 42 -14 26 -59 l-15 -42 35 -15
c19 -8 51 -14 71 -14 19 0 34 -3 32 -7 -2 -5 -10 -25 -18 -46 -13 -34 -24 -43
-95 -77 -66 -31 -84 -46 -103 -78 -44 -79 -38 -94 128 -316 79 -106 118 -136
177 -136 38 0 200 52 263 85 16 8 31 11 34 6 3 -5 22 -16 42 -26 33 -15 34
-18 20 -34 -25 -28 -19 -39 33 -58 45 -16 48 -19 40 -40 -7 -20 -5 -25 17 -33
14 -6 32 -10 40 -10 11 0 12 -4 4 -19 -5 -11 -10 -29 -10 -41 0 -20 4 -22 46
-18 45 3 45 3 40 -24 -5 -27 -5 -27 38 -22 43 6 44 6 51 -26 7 -32 8 -32 50
-27 33 5 44 3 49 -8 3 -10 19 -15 46 -15 22 0 40 -4 40 -10 0 -5 16 -10 35
-10 33 0 35 -1 24 -21 -6 -12 -40 -55 -77 -97 l-65 -75 44 -84 c36 -69 58 -97
123 -154 50 -44 97 -96 127 -143 l47 -75 96 -30 c53 -17 104 -31 113 -31 9 0
59 14 112 30 l96 30 50 78 c31 48 77 101 122 140 56 48 83 82 122 152 l51 89
-34 35 c-39 39 -116 139 -116 149 0 4 7 7 15 7 9 0 18 7 21 15 4 10 20 15 45
15 21 0 39 5 39 11 0 6 19 9 48 7 45 -3 47 -2 50 26 3 28 5 28 48 22 44 -6 45
-5 42 21 -3 25 0 26 42 27 25 1 44 6 44 11 -1 6 -4 22 -8 36 -5 23 -2 27 27
36 28 8 32 13 29 41 -3 26 0 32 17 32 26 0 71 21 71 32 0 5 -5 18 -10 28 -9
16 -5 22 19 35 17 8 34 21 38 29 7 12 37 3 168 -49 249 -100 283 -93 417 86
47 63 90 124 96 136 27 50 3 129 -51 174 -12 10 -52 30 -88 44 l-66 27 -12 54
c-7 29 -17 56 -22 59 -22 14 -8 35 25 35 18 0 47 5 65 11 35 12 40 37 17 79
-14 25 -14 25 50 43 72 19 114 42 114 62 0 8 -12 28 -26 45 -15 17 -25 32 -23
33 2 2 28 14 56 27 29 13 60 32 70 42 15 17 15 19 -2 38 -21 24 -23 22 38 44
47 18 187 105 187 117 0 8 -52 19 -86 19 -36 0 -29 12 25 42 53 30 146 110
161 139 9 16 5 19 -40 25 -27 4 -50 10 -50 13 0 4 23 24 51 45 27 22 78 73
112 114 l61 75 -55 -7 -54 -7 46 48 c61 63 103 127 145 219 19 41 34 77 34 80
0 2 -25 -11 -55 -31 -54 -34 -68 -36 -41 -6 20 24 109 191 104 197 -3 2 -24
-3 -48 -11 -24 -8 -44 -14 -46 -13 -1 2 13 35 31 73 31 64 65 194 65 246 0 18
-6 16 -51 -23 -181 -154 -361 -269 -658 -420 -86 -44 -185 -98 -221 -119 -75
-44 -138 -59 -255 -59 -142 0 -236 -44 -289 -134 -15 -25 -29 -46 -32 -46 -3
0 -10 14 -16 30 l-10 31 -29 -62 c-16 -33 -29 -64 -29 -68 0 -4 13 -12 30 -18
26 -10 29 -14 21 -35 -7 -19 -14 -22 -37 -18 -35 6 -153 4 -159 -2 -3 -3 2
-25 10 -49 9 -24 18 -76 22 -116 3 -40 8 -73 10 -73 2 0 13 5 24 10 32 17 22
-6 -18 -40 -56 -49 -129 -80 -192 -80 -29 0 -70 -5 -91 -11 -32 -10 -42 -8
-86 14 -36 20 -43 26 -26 27 27 0 29 21 2 37 -32 20 -47 63 -55 153 -4 47 -13
99 -20 117 -42 101 -266 135 -408 61 -23 -12 -61 -22 -84 -23 -54 -3 -91 -27
-110 -72 -19 -47 -10 -95 28 -147 67 -96 86 -105 81 -42 -3 32 -2 34 35 39 47
6 55 -1 55 -49 0 -75 -97 -122 -210 -104 -30 5 -66 7 -80 4 -18 -3 -44 5 -77
23 -49 28 -50 29 -50 76 0 44 -2 47 -20 42 -57 -18 -60 -17 -84 25 l-23 41 64
-7 63 -6 21 81 20 81 -65 1 c-110 1 -153 11 -162 37 l-9 24 80 -4 81 -3 -58
57 c-71 70 -78 73 -92 42 -6 -15 -7 -24 -1 -24 6 0 10 7 10 15 0 8 3 15 6 15
8 0 88 -71 92 -82 2 -5 -22 -7 -54 -4 l-59 4 -30 54 c-49 88 -76 117 -132 145
-46 22 -72 26 -194 33 -128 7 -145 10 -197 37 -603 315 -754 405 -899 538
l-73 67 0 -35z m4531 -226 c-89 -112 -320 -263 -462 -301 -58 -16 -149 -28
-149 -20 0 3 37 25 83 48 77 40 115 60 297 160 41 23 115 68 165 101 49 33 92
58 94 56 2 -2 -11 -22 -28 -44z m-4266 -39 c92 -57 286 -165 427 -237 84 -43
94 -50 69 -53 -95 -10 -302 79 -466 200 -80 59 -205 205 -132 155 12 -9 58
-38 102 -65z m4218 -205 c-31 -42 -149 -124 -239 -167 -107 -51 -226 -82 -296
-78 l-53 4 40 17 c22 10 101 44 175 75 74 31 191 84 260 118 69 34 127 60 128
58 2 -1 -4 -14 -15 -27z m-4164 -33 c128 -62 337 -152 419 -180 28 -10 52 -22
52 -26 0 -13 -89 -9 -161 6 -151 32 -353 145 -428 239 -7 9 -10 17 -6 17 4 0
60 -25 124 -56z m843 -172 c137 -6 160 -10 185 -28 48 -36 72 -82 123 -245 70
-219 116 -284 282 -394 l57 -37 -22 -19 c-15 -12 -17 -18 -8 -19 18 0 -16 -40
-35 -40 -7 0 -21 -11 -32 -25 -11 -14 -25 -25 -31 -25 -6 0 -11 -6 -11 -13 0
-8 -9 -22 -20 -32 -11 -10 -20 -22 -20 -28 0 -15 -92 -97 -109 -97 -11 0 -12
-3 -4 -8 7 -4 9 -13 4 -21 -11 -18 -24 15 -16 40 7 22 -15 25 -64 8 -18 -6
-35 -9 -38 -6 -3 4 2 24 10 45 19 46 15 52 -30 52 -38 0 -41 8 -13 43 11 14
20 28 20 31 0 3 -28 6 -62 6 l-63 1 36 32 c19 17 44 37 55 44 16 10 11 12 -36
13 -30 1 -66 5 -79 9 -23 6 -23 7 15 33 22 14 53 33 69 42 29 15 27 15 -67 16
-110 0 -118 7 -68 55 40 38 38 46 -10 39 -21 -4 -52 -3 -67 1 l-28 7 30 24
c17 14 55 39 85 57 l55 32 -40 7 c-22 4 -71 7 -108 7 -47 1 -67 5 -65 12 2 7
36 28 75 48 40 20 72 39 72 42 1 3 -45 11 -101 17 -56 7 -106 16 -112 22 -5 5
13 20 48 36 31 16 56 31 56 34 0 3 -33 15 -73 27 -39 12 -81 28 -91 36 -17 13
-11 16 68 32 48 10 83 21 79 25 -4 4 -29 15 -55 25 -26 9 -55 26 -65 38 -18
20 -18 20 22 13 22 -4 111 -11 197 -14z m2588 9 c0 -13 -56 -46 -103 -61 -42
-13 -41 -30 3 -30 41 0 130 -20 130 -29 0 -12 -73 -42 -137 -56 -46 -11 -53
-15 -36 -20 35 -11 102 -49 105 -59 4 -13 -44 -25 -134 -32 -43 -4 -78 -10
-78 -13 1 -3 33 -22 72 -41 39 -19 73 -40 75 -46 3 -8 -31 -14 -102 -19 -58
-4 -105 -10 -105 -14 0 -4 10 -13 23 -18 13 -6 50 -28 82 -49 57 -36 58 -37
34 -46 -13 -5 -43 -8 -66 -5 -23 2 -44 2 -47 0 -3 -3 11 -21 30 -40 19 -19 32
-39 28 -44 -4 -6 -35 -8 -85 -3 -43 3 -79 5 -79 2 0 -2 25 -21 55 -43 30 -22
55 -43 55 -46 0 -8 -54 -19 -95 -19 -47 0 -49 -10 -5 -41 22 -16 40 -34 40
-39 0 -6 -22 -10 -50 -10 -54 0 -56 -3 -35 -40 21 -36 19 -40 -18 -40 -19 0
-36 -3 -40 -6 -3 -3 1 -24 9 -46 8 -23 12 -43 9 -46 -2 -3 -25 1 -50 8 -52 14
-61 11 -46 -18 25 -46 15 -54 -41 -32 -29 11 -62 20 -73 21 -19 0 -19 1 -2 8
17 6 16 10 -12 40 -17 18 -31 37 -31 42 0 5 -7 9 -15 9 -8 0 -15 6 -15 13 0 8
-25 41 -55 74 -30 34 -55 65 -55 70 0 5 -12 13 -27 19 -26 9 -24 11 63 66 166
107 227 183 275 342 42 141 77 230 101 262 35 43 92 63 188 65 47 1 114 5 150
9 98 11 110 11 110 1z m-3374 -55 c56 -25 164 -66 240 -92 77 -25 141 -49 144
-52 12 -12 -153 9 -215 29 -89 27 -209 89 -260 135 -46 41 -44 41 91 -20z
m4064 49 c0 -2 -25 -23 -56 -45 -68 -51 -178 -104 -259 -125 -61 -16 -204 -32
-195 -22 3 3 48 19 100 36 115 38 348 130 375 148 20 13 35 17 35 8z m-3836
-284 c136 -34 225 -61 217 -65 -18 -11 -152 3 -236 24 -95 24 -262 101 -217
100 4 0 110 -27 236 -59z m3710 48 c-9 -14 -102 -56 -179 -80 -100 -31 -293
-52 -269 -30 6 6 412 114 452 121 2 0 0 -5 -4 -11z m-1896 -26 c38 -13 43 -18
38 -39 -4 -16 1 -38 16 -63 21 -36 22 -43 10 -85 -16 -63 -15 -85 7 -129 19
-37 16 -48 -8 -24 -10 10 -11 8 -6 -8 6 -16 5 -17 -4 -5 -12 18 -51 22 -57 6
-3 -7 -24 -9 -62 -6 -43 4 -60 1 -70 -10 -8 -8 -11 -9 -7 -2 9 17 -22 27 -40
12 -13 -11 -14 -10 -9 4 5 12 2 15 -11 10 -15 -6 -16 -4 -5 16 7 14 11 46 8
81 l-4 59 53 0 c29 0 53 3 53 8 0 4 -23 32 -50 62 -28 30 -50 57 -50 61 0 3
21 22 46 42 50 39 67 40 152 10z m714 -42 c-4 -29 -35 -100 -54 -123 -7 -9
-24 -18 -37 -20 -23 -3 -25 1 -37 67 -20 114 -25 106 59 103 69 -3 72 -4 69
-27z m-2547 -126 c94 -8 335 -57 329 -67 -9 -14 -186 -8 -254 7 -86 20 -190
57 -190 67 0 5 10 6 23 4 12 -3 54 -8 92 -11z m3604 -12 c-84 -35 -222 -63
-315 -63 -51 0 -95 4 -98 8 -10 17 409 88 438 74 5 -3 -7 -11 -25 -19z m-1784
-408 c49 -32 55 -34 55 -16 0 29 11 32 59 15 24 -8 52 -12 62 -9 15 5 19 1 19
-17 0 -13 -3 -34 -7 -47 -6 -23 -6 -23 -115 -16 -84 5 -118 12 -145 27 -29 18
-50 21 -134 19 -95 -1 -99 -1 -99 20 0 15 5 19 15 15 8 -3 36 1 62 9 62 19 63
19 63 -5 0 -27 18 -25 65 10 22 16 41 29 42 30 2 0 27 -16 58 -35z m-68 -91
c24 -18 48 -22 173 -27 80 -3 197 -13 260 -22 292 -41 733 -163 812 -226 22
-17 43 -26 52 -23 33 13 268 -84 317 -131 33 -31 46 -86 30 -123 -7 -14 -50
-76 -96 -138 -89 -118 -125 -144 -198 -144 -17 0 -104 30 -192 66 -88 36 -173
69 -190 74 -16 4 -84 23 -150 43 -150 44 -327 82 -487 103 -150 20 -486 23
-613 6 -49 -7 -108 -14 -130 -16 -57 -6 -261 -52 -389 -88 -71 -20 -121 -29
-145 -25 -29 4 -40 1 -49 -14 -16 -25 -86 -59 -198 -98 -149 -51 -169 -44
-271 91 -166 220 -173 235 -131 299 26 38 78 66 238 130 93 37 111 40 160 35
46 -5 70 -1 145 24 161 55 346 100 366 90 25 -14 39 -12 33 4 -5 14 24 23 146
44 42 7 45 10 42 35 -3 20 1 27 15 28 10 0 74 7 143 14 176 19 271 16 307 -11z"/>
<path d="M2230 2625 c-69 -7 -128 -14 -132 -14 -4 -1 -8 -13 -10 -28 -3 -26
-7 -28 -86 -39 -46 -6 -88 -16 -93 -21 -5 -5 -5 -22 0 -41 12 -40 4 -40 -60
-5 l-49 28 -92 -24 c-51 -13 -153 -43 -227 -67 -121 -39 -139 -42 -175 -32
-37 10 -50 7 -141 -29 -148 -59 -197 -85 -219 -115 -17 -24 -18 -31 -7 -55 15
-34 68 -107 99 -138 12 -12 22 -25 22 -29 0 -4 21 -34 46 -67 61 -79 85 -81
251 -16 87 35 112 49 128 74 16 25 24 30 40 25 52 -18 224 18 260 55 10 10 20
12 26 6 13 -13 199 27 199 43 0 7 -4 24 -10 38 -12 33 -8 33 47 -5 l45 -31
116 12 c65 6 126 12 137 13 18 2 20 8 18 57 l-3 55 20 -43 c11 -24 29 -46 43
-51 13 -5 91 -12 173 -14 82 -3 189 -11 238 -17 64 -9 96 -9 112 -1 19 8 24 8
24 -4 0 -8 3 -15 8 -15 23 0 320 -72 391 -95 l84 -27 17 22 17 23 7 -26 c4
-18 21 -33 60 -51 30 -14 58 -26 63 -26 5 0 55 -20 112 -45 110 -48 130 -51
179 -34 33 11 122 118 122 145 0 8 6 14 13 14 7 0 28 25 46 55 54 89 35 112
-153 190 -67 28 -100 36 -130 33 -36 -4 -45 0 -71 28 -25 26 -59 41 -190 83
-151 48 -443 121 -486 121 -10 0 -19 -4 -19 -10 0 -5 -15 -1 -32 10 -35 20
-214 46 -247 35 -11 -3 -22 -2 -25 3 -3 5 -54 10 -113 11 -95 2 -111 5 -131
23 -29 28 -94 31 -262 13z m223 -26 c32 -17 37 -28 37 -88 0 -43 -5 -60 -22
-78 l-21 -23 21 -23 c17 -18 22 -36 22 -75 0 -40 4 -52 15 -52 10 0 15 -10 15
-30 0 -28 -2 -30 -38 -30 -53 0 -74 25 -80 98 -3 31 -8 59 -12 62 -5 3 -31 3
-60 1 -52 -3 -52 -3 -46 -33 3 -17 6 -41 6 -54 0 -18 6 -24 21 -24 16 0 20 -5
17 -27 -3 -27 -6 -28 -73 -35 -72 -7 -85 -2 -85 35 0 9 7 17 16 17 13 0 15 7
10 31 -3 17 -6 42 -6 55 0 19 -5 24 -25 24 -18 0 -25 5 -25 19 0 11 -3 26 -6
34 -4 11 2 16 18 19 13 2 22 6 21 11 -2 4 -3 25 -3 48 0 32 -4 42 -19 46 -10
3 -21 15 -24 28 -5 28 12 32 167 45 136 11 136 11 159 -1z m225 -45 c16 -5 22
-14 22 -35 0 -18 -5 -29 -14 -29 -25 0 -36 -215 -11 -234 9 -7 12 -19 9 -33
-6 -21 -12 -23 -70 -23 l-64 0 0 29 c0 16 5 31 11 33 6 2 13 51 16 121 5 104
4 117 -11 117 -16 0 -23 39 -9 53 8 9 90 9 121 1z m254 -25 c80 -13 92 -24 83
-79 -8 -48 -12 -51 -58 -43 -30 4 -37 10 -37 28 0 24 -22 35 -72 35 -25 0 -28
-3 -28 -35 0 -34 1 -35 38 -35 52 -1 113 -16 123 -32 23 -35 -2 -162 -36 -184
-20 -13 -36 -13 -112 -3 -48 6 -94 16 -100 21 -14 11 -18 104 -5 111 4 3 22 2
40 0 28 -5 32 -9 32 -34 0 -28 2 -29 44 -29 37 0 45 4 50 23 11 42 7 45 -64
52 -96 10 -103 18 -98 118 5 114 7 115 200 86z m-832 -39 c0 -15 -6 -30 -14
-33 -11 -5 -10 -29 10 -143 14 -75 22 -139 19 -142 -2 -3 -48 23 -100 58 -52
35 -97 61 -99 59 -3 -2 1 -23 7 -46 7 -26 18 -43 30 -47 13 -3 18 -12 15 -27
-2 -19 -13 -24 -67 -35 -36 -8 -66 -12 -67 -11 -10 10 -14 57 -5 57 17 0 13
25 -24 155 -20 72 -30 124 -25 129 9 9 89 -29 173 -81 l37 -23 0 22 c0 41 -11
66 -31 71 -27 7 -25 45 4 52 52 11 123 21 130 18 4 -2 7 -17 7 -33z m1127 -16
c67 -15 127 -30 132 -34 8 -4 6 -21 -5 -54 -16 -48 -17 -48 -53 -41 -47 9 -50
11 -44 34 4 16 -2 21 -31 27 -43 8 -46 6 -49 -31 -2 -24 3 -30 32 -37 28 -8
32 -13 27 -31 -3 -12 -6 -27 -6 -34 0 -7 -15 -11 -42 -10 -38 2 -42 0 -49 -27
-10 -36 -11 -35 35 -43 32 -5 36 -3 36 17 0 21 3 22 41 17 22 -3 43 -7 45 -9
5 -5 -25 -100 -35 -110 -8 -8 -250 44 -251 55 -1 36 2 47 14 47 7 0 16 14 20
31 9 47 7 59 -9 59 -16 0 -18 12 -9 48 4 12 14 22 25 22 22 0 39 68 20 80 -19
11 -3 62 18 56 9 -2 71 -17 138 -32z m-1493 -51 c5 -16 3 -29 -5 -34 -9 -5 -3
-36 25 -124 35 -109 36 -118 22 -140 -28 -42 -202 -81 -238 -53 -10 7 -38 58
-62 113 -32 71 -52 104 -71 113 -48 25 -32 48 52 76 59 20 79 23 85 13 12 -18
10 -45 -4 -49 -9 -3 -1 -34 27 -102 22 -54 42 -99 46 -101 9 -6 81 15 77 23
-2 4 -19 51 -38 105 -25 70 -40 97 -52 97 -16 0 -35 36 -24 47 6 6 124 41 142
42 7 1 15 -11 18 -26z m1832 -43 c76 -26 129 -49 143 -64 l22 -24 -26 -52
c-15 -30 -35 -55 -47 -58 -15 -4 -19 -11 -15 -31 3 -14 -1 -41 -9 -60 -9 -21
-11 -38 -5 -45 6 -7 3 -20 -8 -35 -17 -22 -19 -22 -54 -7 -48 20 -54 37 -34
99 9 28 13 55 8 60 -4 4 -23 10 -43 13 -32 6 -36 3 -48 -26 -11 -26 -11 -33 0
-40 16 -10 5 -60 -13 -60 -29 0 -132 39 -131 49 1 6 2 18 3 26 0 8 9 15 19 15
11 0 22 12 30 33 15 43 15 47 -3 47 -8 0 -15 8 -15 18 1 28 23 57 44 57 24 0
45 63 26 75 -17 11 -2 50 18 50 9 0 71 -18 138 -40z m-2255 -30 c16 -9 55 -79
47 -85 -2 -1 -23 -10 -48 -19 l-44 -17 -18 24 -18 25 -65 -27 c-36 -15 -68
-30 -71 -34 -5 -5 4 -21 42 -75 1 -2 28 8 60 21 126 53 154 59 180 42 28 -18
84 -124 84 -158 0 -33 -22 -49 -128 -90 -119 -48 -150 -48 -191 -2 -17 20 -31
40 -31 44 0 5 19 16 42 25 41 17 41 17 62 -9 l21 -26 55 22 c30 12 59 25 63
29 11 10 -32 80 -49 80 -8 0 -54 -16 -103 -36 -61 -25 -97 -35 -114 -30 -29 7
-117 123 -117 154 0 25 21 38 146 90 148 63 165 67 195 52z m2643 -118 c60
-26 114 -54 119 -63 11 -18 3 -55 -18 -83 -15 -19 -16 -19 -65 4 -34 16 -47
27 -40 34 20 20 9 34 -40 54 l-50 21 -15 -22 c-8 -12 -15 -25 -15 -29 0 -4 36
-24 80 -44 97 -44 107 -64 65 -122 -49 -66 -78 -92 -102 -92 -24 0 -188 64
-210 82 -18 15 -16 54 4 86 9 15 18 28 19 30 1 2 20 -5 43 -14 41 -16 50 -27
31 -39 -21 -13 -8 -31 36 -49 l45 -19 17 24 c9 13 17 28 17 34 0 5 -33 23 -73
40 -97 40 -102 50 -62 128 18 34 37 68 42 75 18 21 60 13 172 -36z"/>
<path d="M2076 4089 c-9 -44 -18 -183 -17 -249 2 -75 26 -190 45 -215 12 -17
16 -16 57 12 24 17 59 38 76 47 l33 16 -45 60 c-44 60 -85 153 -85 191 0 13
-4 18 -11 13 -9 -5 -10 1 -5 20 3 14 2 26 -3 26 -5 0 -12 17 -16 38 -9 53 -22
73 -29 41z m42 -131 c6 -7 13 -31 17 -53 8 -43 33 -98 73 -157 14 -21 23 -40
21 -42 -2 -1 -25 -14 -52 -29 l-47 -26 -14 28 c-38 73 -61 273 -33 284 20 8
24 8 35 -5z"/>
<path d="M2355 4058 c-3 -24 -3 -93 2 -154 5 -61 5 -126 2 -143 -6 -29 -5 -31
20 -25 14 3 68 8 119 11 57 4 92 10 92 17 0 31 -35 118 -71 179 -22 37 -49 87
-60 110 l-20 42 4 -35 c3 -19 24 -67 47 -106 46 -80 75 -170 56 -177 -6 -2
-40 -5 -75 -6 -36 -1 -68 -4 -73 -7 -4 -3 -8 17 -8 44 0 27 -5 74 -11 103 -6
30 -10 84 -10 122 0 37 -1 67 -4 67 -2 0 -7 -19 -10 -42z"/>
<path d="M2790 3950 c-64 -68 -147 -196 -135 -209 3 -2 135 -50 141 -51 0 0 0
16 1 35 1 20 25 84 57 151 31 64 56 122 56 128 -1 6 -9 -5 -19 -24 -10 -19
-34 -64 -54 -98 -21 -35 -43 -85 -51 -110 -14 -49 -20 -52 -72 -32 -13 5 -24
15 -24 22 0 22 56 111 97 154 62 66 84 95 81 105 -2 5 -37 -27 -78 -71z"/>
<path d="M3002 3851 c-81 -49 -114 -82 -144 -138 -22 -42 -22 -45 -5 -54 10
-6 43 -31 73 -55 29 -24 55 -44 58 -44 2 0 11 21 21 48 18 47 57 110 92 147
10 11 29 36 42 55 16 25 17 29 3 13 -11 -12 -22 -20 -24 -18 -9 9 -87 -92
-115 -149 -15 -31 -30 -56 -33 -56 -3 0 -28 17 -56 38 l-51 38 18 35 c21 41
81 99 129 125 40 22 78 54 64 54 -5 0 -38 -18 -72 -39z"/>
<path d="M1550 3745 c0 -13 63 -79 103 -108 24 -18 45 -26 55 -22 13 5 9 11
-20 26 -58 30 -53 36 30 33 42 -2 69 -1 60 2 -10 3 -18 10 -18 15 0 6 8 8 18
5 9 -3 39 -10 66 -16 51 -11 161 -62 185 -85 11 -11 9 -19 -18 -52 -17 -21
-40 -49 -50 -63 -18 -22 -21 -23 -33 -9 -27 32 -104 88 -143 102 -43 17 -95
29 -95 24 0 -2 33 -20 74 -40 49 -25 92 -57 130 -97 60 -63 66 -67 66 -48 0
12 69 107 102 140 24 24 15 38 -52 80 -73 47 -192 80 -259 72 -53 -6 -102 5
-183 41 -10 4 -18 4 -18 0z"/>
</g>
</svg>
